<svg width="1597" height="56" viewBox="0 0 1597 56" fill="none" xmlns="http://www.w3.org/2000/svg">
<path d="M70.3945 27.2192V28.4995C70.3945 30.5529 70.1162 32.396 69.5596 34.0288C69.0029 35.6616 68.2174 37.0532 67.2031 38.2036C66.1888 39.3416 64.9766 40.2137 63.5664 40.8198C62.1686 41.4259 60.6162 41.729 58.9092 41.729C57.2145 41.729 55.6621 41.4259 54.252 40.8198C52.8542 40.2137 51.6419 39.3416 50.6152 38.2036C49.5885 37.0532 48.7907 35.6616 48.2217 34.0288C47.665 32.396 47.3867 30.5529 47.3867 28.4995V27.2192C47.3867 25.1535 47.665 23.3104 48.2217 21.6899C48.7783 20.0571 49.5638 18.6655 50.5781 17.5151C51.6048 16.3647 52.8171 15.4865 54.2148 14.8804C55.625 14.2743 57.1774 13.9712 58.8721 13.9712C60.5791 13.9712 62.1315 14.2743 63.5293 14.8804C64.9395 15.4865 66.1517 16.3647 67.166 17.5151C68.1927 18.6655 68.9844 20.0571 69.541 21.6899C70.11 23.3104 70.3945 25.1535 70.3945 27.2192ZM64.7725 28.4995V27.1821C64.7725 25.7472 64.6426 24.4855 64.3828 23.397C64.123 22.3084 63.7396 21.3931 63.2324 20.6509C62.7253 19.9087 62.1068 19.3521 61.377 18.981C60.6471 18.5975 59.8122 18.4058 58.8721 18.4058C57.932 18.4058 57.097 18.5975 56.3672 18.981C55.6497 19.3521 55.0374 19.9087 54.5303 20.6509C54.0355 21.3931 53.6582 22.3084 53.3984 23.397C53.1387 24.4855 53.0088 25.7472 53.0088 27.1821V28.4995C53.0088 29.922 53.1387 31.1838 53.3984 32.2847C53.6582 33.3732 54.0417 34.2948 54.5488 35.0493C55.056 35.7915 55.6745 36.3543 56.4043 36.7378C57.1341 37.1213 57.9691 37.313 58.9092 37.313C59.8493 37.313 60.6842 37.1213 61.4141 36.7378C62.1439 36.3543 62.7562 35.7915 63.251 35.0493C63.7458 34.2948 64.123 33.3732 64.3828 32.2847C64.6426 31.1838 64.7725 29.922 64.7725 28.4995ZM79.4121 25.6606V41.3579H74.0684V21.2817H79.0967L79.4121 25.6606ZM85.4609 21.1519L85.3682 26.106C85.1084 26.0688 84.793 26.0379 84.4219 26.0132C84.0632 25.9761 83.7354 25.9575 83.4385 25.9575C82.6839 25.9575 82.0283 26.0565 81.4717 26.2544C80.9274 26.4399 80.4697 26.7183 80.0986 27.0894C79.7399 27.4604 79.4678 27.9119 79.2822 28.4438C79.109 28.9757 79.0101 29.5819 78.9854 30.2622L77.9092 29.9282C77.9092 28.6294 78.0391 27.4357 78.2988 26.3472C78.5586 25.2463 78.9359 24.2876 79.4307 23.4712C79.9378 22.6548 80.5563 22.0239 81.2861 21.5786C82.016 21.1333 82.8509 20.9106 83.791 20.9106C84.0879 20.9106 84.391 20.9354 84.7002 20.9849C85.0094 21.022 85.263 21.0776 85.4609 21.1519ZM100.323 21.2817H105.166V40.6899C105.166 42.5207 104.758 44.0731 103.941 45.3472C103.137 46.6336 102.012 47.6047 100.564 48.2603C99.1172 48.9282 97.4349 49.2622 95.5176 49.2622C94.6764 49.2622 93.7858 49.1509 92.8457 48.9282C91.918 48.7056 91.0273 48.3592 90.1738 47.8892C89.3327 47.4191 88.6276 46.8254 88.0586 46.1079L90.415 42.9536C91.0335 43.6711 91.751 44.2277 92.5674 44.6235C93.3838 45.0317 94.2868 45.2358 95.2764 45.2358C96.2412 45.2358 97.0576 45.0565 97.7256 44.6978C98.3936 44.3514 98.9069 43.8381 99.2656 43.1577C99.6243 42.4897 99.8037 41.6795 99.8037 40.7271V25.9204L100.323 21.2817ZM86.8154 31.561V31.1714C86.8154 29.6375 87.001 28.2459 87.3721 26.9966C87.7555 25.7349 88.2936 24.6525 88.9863 23.7495C89.6914 22.8465 90.5449 22.1476 91.5469 21.6528C92.5488 21.158 93.6807 20.9106 94.9424 20.9106C96.2783 20.9106 97.3978 21.158 98.3008 21.6528C99.2038 22.1476 99.946 22.8527 100.527 23.7681C101.109 24.6711 101.56 25.741 101.882 26.978C102.216 28.2026 102.476 29.5448 102.661 31.0044V31.8579C102.476 33.2557 102.197 34.5545 101.826 35.7544C101.455 36.9543 100.966 38.0057 100.36 38.9087C99.7542 39.7993 98.9997 40.492 98.0967 40.9868C97.2061 41.4816 96.1423 41.729 94.9053 41.729C93.6683 41.729 92.5488 41.4754 91.5469 40.9683C90.5573 40.4611 89.71 39.7498 89.0049 38.8345C88.2998 37.9191 87.7555 36.8429 87.3721 35.606C87.001 34.369 86.8154 33.0207 86.8154 31.561ZM92.1592 31.1714V31.561C92.1592 32.3898 92.2396 33.1629 92.4004 33.8804C92.5612 34.5978 92.8086 35.2349 93.1426 35.7915C93.4889 36.3358 93.9157 36.7625 94.4229 37.0718C94.9424 37.3687 95.5547 37.5171 96.2598 37.5171C97.237 37.5171 98.0348 37.313 98.6533 36.9048C99.2718 36.4842 99.7357 35.909 100.045 35.1792C100.354 34.4494 100.534 33.6082 100.583 32.6558V30.2251C100.558 29.4458 100.453 28.7469 100.268 28.1284C100.082 27.4976 99.8223 26.9595 99.4883 26.5142C99.1543 26.0688 98.7214 25.7225 98.1895 25.4751C97.6576 25.2277 97.0267 25.104 96.2969 25.104C95.5918 25.104 94.9795 25.2648 94.46 25.5864C93.9528 25.8957 93.526 26.3224 93.1797 26.8667C92.8457 27.411 92.5921 28.0542 92.4189 28.7964C92.2458 29.5262 92.1592 30.3179 92.1592 31.1714ZM120.158 36.8306V27.8872C120.158 27.244 120.053 26.6935 119.843 26.2358C119.632 25.7658 119.305 25.4009 118.859 25.1411C118.426 24.8813 117.864 24.7515 117.171 24.7515C116.577 24.7515 116.064 24.8566 115.631 25.0669C115.198 25.2648 114.864 25.5555 114.629 25.939C114.394 26.3101 114.276 26.7492 114.276 27.2563H108.933C108.933 26.4028 109.131 25.5926 109.526 24.8257C109.922 24.0588 110.497 23.3846 111.252 22.8032C112.007 22.2095 112.903 21.7456 113.942 21.4116C114.994 21.0776 116.169 20.9106 117.468 20.9106C119.026 20.9106 120.412 21.1704 121.624 21.6899C122.836 22.2095 123.789 22.9888 124.481 24.0278C125.187 25.0669 125.539 26.3657 125.539 27.9243V36.5151C125.539 37.616 125.607 38.519 125.743 39.2241C125.879 39.9168 126.077 40.5229 126.337 41.0425V41.3579H120.938C120.678 40.8136 120.48 40.1333 120.344 39.3169C120.22 38.4881 120.158 37.6593 120.158 36.8306ZM120.863 29.1304L120.9 32.1548H117.913C117.208 32.1548 116.596 32.2352 116.076 32.396C115.557 32.5568 115.13 32.7856 114.796 33.0825C114.462 33.367 114.215 33.701 114.054 34.0845C113.905 34.4679 113.831 34.8885 113.831 35.3462C113.831 35.8039 113.936 36.2183 114.146 36.5894C114.357 36.9481 114.66 37.2326 115.056 37.4429C115.451 37.6408 115.915 37.7397 116.447 37.7397C117.251 37.7397 117.95 37.5789 118.544 37.2573C119.138 36.9357 119.595 36.5399 119.917 36.0698C120.251 35.5998 120.424 35.1545 120.437 34.7339L121.847 36.9976C121.649 37.5047 121.377 38.0304 121.03 38.5747C120.696 39.119 120.27 39.6323 119.75 40.1147C119.23 40.5848 118.606 40.9744 117.876 41.2837C117.146 41.5806 116.28 41.729 115.278 41.729C114.004 41.729 112.848 41.4754 111.809 40.9683C110.782 40.4487 109.965 39.7375 109.359 38.8345C108.766 37.9191 108.469 36.88 108.469 35.7173C108.469 34.6659 108.667 33.7319 109.062 32.9155C109.458 32.0991 110.04 31.4126 110.807 30.856C111.586 30.2869 112.557 29.8602 113.72 29.5757C114.882 29.2788 116.231 29.1304 117.765 29.1304H120.863ZM134.891 25.5679V41.3579H129.547V21.2817H134.557L134.891 25.5679ZM134.111 30.6147H132.664C132.664 29.1304 132.856 27.7944 133.239 26.6069C133.623 25.4071 134.161 24.3866 134.854 23.5454C135.546 22.6919 136.369 22.0425 137.321 21.5972C138.286 21.1395 139.362 20.9106 140.55 20.9106C141.49 20.9106 142.35 21.0467 143.129 21.3188C143.908 21.591 144.576 22.0239 145.133 22.6177C145.702 23.2114 146.135 23.9969 146.432 24.9741C146.741 25.9513 146.896 27.145 146.896 28.5552V41.3579H141.515V28.5366C141.515 27.646 141.391 26.9533 141.144 26.4585C140.896 25.9637 140.531 25.6174 140.049 25.4194C139.579 25.2091 138.997 25.104 138.305 25.104C137.587 25.104 136.963 25.2463 136.431 25.5308C135.911 25.8153 135.478 26.2111 135.132 26.7183C134.798 27.2131 134.544 27.7944 134.371 28.4624C134.198 29.1304 134.111 29.8478 134.111 30.6147ZM156.6 21.2817V41.3579H151.237V21.2817H156.6ZM150.903 16.0493C150.903 15.27 151.175 14.6268 151.72 14.1196C152.264 13.6125 152.994 13.3589 153.909 13.3589C154.812 13.3589 155.536 13.6125 156.08 14.1196C156.637 14.6268 156.915 15.27 156.915 16.0493C156.915 16.8286 156.637 17.4718 156.08 17.979C155.536 18.4862 154.812 18.7397 153.909 18.7397C152.994 18.7397 152.264 18.4862 151.72 17.979C151.175 17.4718 150.903 16.8286 150.903 16.0493ZM169.31 37.5542C169.965 37.5542 170.547 37.4305 171.054 37.1831C171.561 36.9233 171.957 36.5646 172.241 36.1069C172.538 35.6369 172.693 35.0864 172.705 34.4556H177.733C177.721 35.8657 177.344 37.1213 176.602 38.2222C175.859 39.3107 174.864 40.1704 173.614 40.8013C172.365 41.4198 170.967 41.729 169.421 41.729C167.862 41.729 166.502 41.4692 165.339 40.9497C164.188 40.4302 163.23 39.7127 162.463 38.7974C161.696 37.8696 161.121 36.7935 160.737 35.5688C160.354 34.3319 160.162 33.0083 160.162 31.5981V31.0601C160.162 29.6375 160.354 28.314 160.737 27.0894C161.121 25.8524 161.696 24.7762 162.463 23.8608C163.23 22.9331 164.188 22.2095 165.339 21.6899C166.489 21.1704 167.838 20.9106 169.384 20.9106C171.029 20.9106 172.47 21.2261 173.707 21.8569C174.956 22.4878 175.934 23.3908 176.639 24.5659C177.356 25.7287 177.721 27.1079 177.733 28.7036H172.705C172.693 28.0356 172.55 27.4295 172.278 26.8853C172.019 26.341 171.635 25.908 171.128 25.5864C170.633 25.2524 170.021 25.0854 169.291 25.0854C168.512 25.0854 167.875 25.2524 167.38 25.5864C166.885 25.908 166.502 26.3534 166.229 26.9224C165.957 27.479 165.766 28.116 165.654 28.8335C165.555 29.5386 165.506 30.2808 165.506 31.0601V31.5981C165.506 32.3774 165.555 33.1258 165.654 33.8433C165.753 34.5607 165.939 35.1978 166.211 35.7544C166.495 36.311 166.885 36.7502 167.38 37.0718C167.875 37.3934 168.518 37.5542 169.31 37.5542ZM186.176 12.8394V41.3579H180.832V12.8394H186.176ZM198.83 21.2817L190.109 31.2271L185.434 35.9585L183.485 32.0991L187.196 27.3862L192.41 21.2817H198.83ZM193.282 41.3579L187.345 32.0806L191.037 28.8521L199.442 41.3579H193.282Z" fill="#274C5B"/>
<path d="M1.85059 41.9263H19.2909H36.7312" stroke="#7EB693" stroke-width="2" stroke-miterlimit="10"/>
<path d="M5.79102 48.3579L19.291 48.3579L32.791 48.3579" stroke="#7EB693" stroke-width="2" stroke-miterlimit="10"/>
<path d="M18.791 1.35791L18.791 8.35791L18.791 15.3579" stroke="#7EB693" stroke-width="2" stroke-miterlimit="10"/>
<path d="M18.8657 14.6421V41.0737" stroke="#7EB693" stroke-width="2" stroke-miterlimit="10"/>
<path d="M29.9254 4.41064L18.8657 15.4949" stroke="#7EB693" stroke-width="2" stroke-miterlimit="10"/>
<path d="M34.1792 8.67383L18.8657 24.0212" stroke="#7EB693" stroke-width="2" stroke-miterlimit="10"/>
<path d="M36.7314 15.4946L18.8657 32.5473" stroke="#7EB693" stroke-width="2" stroke-miterlimit="10"/>
<path d="M37.5821 23.1685L18.8657 41.9264" stroke="#7EB693" stroke-width="2" stroke-miterlimit="10"/>
<path d="M37.582 31.6948L27.373 41.9264" stroke="#7EB693" stroke-width="2" stroke-miterlimit="10"/>
<path d="M1 31.6948L11.209 41.9264" stroke="#7EB693" stroke-width="2" stroke-miterlimit="10"/>
<path d="M8.65674 4.41064L18.8657 15.4949" stroke="#7EB693" stroke-width="2" stroke-miterlimit="10"/>
<path d="M4.40283 8.67383L18.8655 24.0212" stroke="#7EB693" stroke-width="2" stroke-miterlimit="10"/>
<path d="M1.85059 14.6421L18.8655 32.5474" stroke="#7EB693" stroke-width="2" stroke-miterlimit="10"/>
<path d="M1 22.3159L18.8657 41.0738" stroke="#7EB693" stroke-width="2" stroke-miterlimit="10"/>
<path d="M19.291 54.7158C9.19019 54.7158 1 46.2635 1 35.8351V19.8806C1 9.45419 9.19019 1 19.291 1C29.3937 1 37.5821 9.45419 37.5821 19.8806V35.8351C37.5839 46.2635 29.3937 54.7158 19.291 54.7158Z" stroke="#7EB693" stroke-width="2" stroke-miterlimit="10"/>
<path d="M360.543 25.9302V28.2153H353.121V25.9302H360.543ZM353.99 20.1391V34.3579H351.061V20.1391H353.99ZM362.633 20.1391V34.3579H359.713V20.1391H362.633ZM364.557 29.1821V28.977C364.557 28.2023 364.667 27.4894 364.889 26.8384C365.11 26.1808 365.432 25.6112 365.855 25.1294C366.279 24.6476 366.799 24.2733 367.418 24.0063C368.036 23.7329 368.746 23.5962 369.547 23.5962C370.348 23.5962 371.061 23.7329 371.686 24.0063C372.311 24.2733 372.835 24.6476 373.258 25.1294C373.688 25.6112 374.013 26.1808 374.234 26.8384C374.456 27.4894 374.566 28.2023 374.566 28.977V29.1821C374.566 29.9503 374.456 30.6632 374.234 31.3208C374.013 31.9718 373.688 32.5415 373.258 33.0298C372.835 33.5115 372.314 33.8859 371.695 34.1528C371.077 34.4197 370.367 34.5532 369.566 34.5532C368.766 34.5532 368.053 34.4197 367.428 34.1528C366.809 33.8859 366.285 33.5115 365.855 33.0298C365.432 32.5415 365.11 31.9718 364.889 31.3208C364.667 30.6632 364.557 29.9503 364.557 29.1821ZM367.369 28.977V29.1821C367.369 29.6248 367.408 30.0382 367.486 30.4223C367.564 30.8065 367.688 31.145 367.857 31.438C368.033 31.7244 368.261 31.949 368.541 32.1118C368.821 32.2746 369.163 32.3559 369.566 32.3559C369.957 32.3559 370.292 32.2746 370.572 32.1118C370.852 31.949 371.077 31.7244 371.246 31.438C371.415 31.145 371.539 30.8065 371.617 30.4223C371.702 30.0382 371.744 29.6248 371.744 29.1821V28.977C371.744 28.5473 371.702 28.1437 371.617 27.7661C371.539 27.382 371.412 27.0434 371.236 26.7505C371.067 26.451 370.842 26.2166 370.562 26.0473C370.283 25.8781 369.944 25.7934 369.547 25.7934C369.15 25.7934 368.811 25.8781 368.531 26.0473C368.258 26.2166 368.033 26.451 367.857 26.7505C367.688 27.0434 367.564 27.382 367.486 27.7661C367.408 28.1437 367.369 28.5473 367.369 28.977ZM379.107 25.979V34.3579H376.285V23.7915H378.932L379.107 25.979ZM378.717 28.7036H377.936C377.936 27.9679 378.023 27.2908 378.199 26.6723C378.382 26.0473 378.645 25.507 378.99 25.0513C379.342 24.589 379.775 24.2309 380.289 23.977C380.803 23.7231 381.399 23.5962 382.076 23.5962C382.545 23.5962 382.975 23.6678 383.365 23.811C383.756 23.9477 384.091 24.1658 384.371 24.4653C384.658 24.7583 384.879 25.1424 385.035 25.6177C385.191 26.0864 385.27 26.6496 385.27 27.3071V34.3579H382.457V27.6196C382.457 27.1378 382.392 26.7667 382.262 26.5063C382.132 26.2459 381.946 26.0636 381.705 25.9595C381.471 25.8553 381.188 25.8032 380.855 25.8032C380.491 25.8032 380.172 25.8781 379.898 26.0278C379.632 26.1776 379.41 26.3859 379.234 26.6528C379.059 26.9132 378.928 27.2192 378.844 27.5708C378.759 27.9223 378.717 28.3 378.717 28.7036ZM385.006 28.3813L384 28.5083C384 27.8182 384.085 27.1769 384.254 26.5845C384.43 25.992 384.687 25.4712 385.025 25.022C385.37 24.5727 385.797 24.2244 386.305 23.977C386.812 23.7231 387.398 23.5962 388.062 23.5962C388.57 23.5962 389.033 23.671 389.449 23.8208C389.866 23.964 390.221 24.1951 390.514 24.5141C390.813 24.8266 391.041 25.2368 391.197 25.7446C391.36 26.2524 391.441 26.8742 391.441 27.6098V34.3579H388.619V27.6098C388.619 27.1216 388.554 26.7505 388.424 26.4966C388.3 26.2362 388.118 26.0571 387.877 25.9595C387.643 25.8553 387.363 25.8032 387.037 25.8032C386.699 25.8032 386.402 25.8716 386.148 26.0083C385.895 26.1385 385.683 26.3208 385.514 26.5552C385.344 26.7895 385.217 27.063 385.133 27.3755C385.048 27.6815 385.006 28.0167 385.006 28.3813ZM398.482 34.5532C397.662 34.5532 396.926 34.423 396.275 34.1626C395.624 33.8957 395.071 33.5278 394.615 33.0591C394.166 32.5903 393.821 32.0467 393.58 31.4282C393.339 30.8032 393.219 30.1391 393.219 29.436V29.0454C393.219 28.2446 393.333 27.5122 393.561 26.8481C393.788 26.1841 394.114 25.6079 394.537 25.1196C394.967 24.6313 395.488 24.257 396.1 23.9966C396.712 23.7296 397.402 23.5962 398.17 23.5962C398.919 23.5962 399.583 23.7199 400.162 23.9673C400.742 24.2147 401.227 24.5662 401.617 25.022C402.014 25.4777 402.314 26.0246 402.516 26.6626C402.717 27.2941 402.818 27.9972 402.818 28.772V29.9438H394.42V28.0688H400.055V27.854C400.055 27.4634 399.983 27.1151 399.84 26.8091C399.703 26.4966 399.495 26.2492 399.215 26.0669C398.935 25.8846 398.577 25.7934 398.141 25.7934C397.77 25.7934 397.451 25.8748 397.184 26.0376C396.917 26.2003 396.699 26.4282 396.529 26.7212C396.367 27.0141 396.243 27.3592 396.158 27.7563C396.08 28.147 396.041 28.5766 396.041 29.0454V29.436C396.041 29.8592 396.1 30.2498 396.217 30.6079C396.34 30.966 396.513 31.2752 396.734 31.5356C396.962 31.796 397.236 31.9979 397.555 32.1411C397.88 32.2843 398.248 32.3559 398.658 32.3559C399.166 32.3559 399.638 32.2583 400.074 32.063C400.517 31.8612 400.898 31.5584 401.217 31.1548L402.584 32.6391C402.363 32.9582 402.06 33.2641 401.676 33.5571C401.298 33.8501 400.842 34.091 400.309 34.2798C399.775 34.4621 399.166 34.5532 398.482 34.5532ZM455.201 22.5708L451.334 34.3579H448.219L453.502 20.1391H455.484L455.201 22.5708ZM458.414 34.3579L454.537 22.5708L454.225 20.1391H456.227L461.539 34.3579H458.414ZM458.238 29.0649V31.3598H450.729V29.0649H458.238ZM462.682 19.3579H465.494V31.936L465.211 34.3579H462.682V19.3579ZM472.184 28.9673V29.1723C472.184 29.9601 472.099 30.6828 471.93 31.3403C471.767 31.9979 471.513 32.5675 471.168 33.0493C470.823 33.5246 470.393 33.8957 469.879 34.1626C469.371 34.423 468.772 34.5532 468.082 34.5532C467.438 34.5532 466.878 34.423 466.402 34.1626C465.934 33.9022 465.54 33.5343 465.221 33.0591C464.902 32.5838 464.645 32.0272 464.449 31.3891C464.254 30.7511 464.107 30.0545 464.01 29.2993V28.8501C464.107 28.0949 464.254 27.3983 464.449 26.7602C464.645 26.1222 464.902 25.5656 465.221 25.0903C465.54 24.6151 465.934 24.2472 466.402 23.9868C466.871 23.7264 467.424 23.5962 468.062 23.5962C468.759 23.5962 469.365 23.7296 469.879 23.9966C470.4 24.257 470.829 24.6281 471.168 25.1098C471.513 25.5851 471.767 26.1515 471.93 26.8091C472.099 27.4601 472.184 28.1795 472.184 28.9673ZM469.371 29.1723V28.9673C469.371 28.5376 469.339 28.1339 469.273 27.7563C469.215 27.3722 469.111 27.0369 468.961 26.7505C468.811 26.4575 468.606 26.2264 468.346 26.0571C468.092 25.8878 467.763 25.8032 467.359 25.8032C466.975 25.8032 466.65 25.8683 466.383 25.9985C466.116 26.1287 465.895 26.311 465.719 26.5454C465.549 26.7798 465.423 27.0597 465.338 27.3852C465.253 27.7042 465.201 28.0558 465.182 28.4399V29.7192C465.201 30.2335 465.286 30.6893 465.436 31.0864C465.592 31.477 465.826 31.7863 466.139 32.0141C466.458 32.2355 466.871 32.3462 467.379 32.3462C467.776 32.3462 468.105 32.2681 468.365 32.1118C468.626 31.9556 468.827 31.7342 468.971 31.4477C469.12 31.1613 469.225 30.826 469.283 30.4419C469.342 30.0513 469.371 29.6281 469.371 29.1723ZM473.482 29.1821V28.977C473.482 28.2023 473.593 27.4894 473.814 26.8384C474.036 26.1808 474.358 25.6112 474.781 25.1294C475.204 24.6476 475.725 24.2733 476.344 24.0063C476.962 23.7329 477.672 23.5962 478.473 23.5962C479.273 23.5962 479.986 23.7329 480.611 24.0063C481.236 24.2733 481.76 24.6476 482.184 25.1294C482.613 25.6112 482.939 26.1808 483.16 26.8384C483.382 27.4894 483.492 28.2023 483.492 28.977V29.1821C483.492 29.9503 483.382 30.6632 483.16 31.3208C482.939 31.9718 482.613 32.5415 482.184 33.0298C481.76 33.5115 481.24 33.8859 480.621 34.1528C480.003 34.4197 479.293 34.5532 478.492 34.5532C477.691 34.5532 476.979 34.4197 476.354 34.1528C475.735 33.8859 475.211 33.5115 474.781 33.0298C474.358 32.5415 474.036 31.9718 473.814 31.3208C473.593 30.6632 473.482 29.9503 473.482 29.1821ZM476.295 28.977V29.1821C476.295 29.6248 476.334 30.0382 476.412 30.4223C476.49 30.8065 476.614 31.145 476.783 31.438C476.959 31.7244 477.187 31.949 477.467 32.1118C477.747 32.2746 478.089 32.3559 478.492 32.3559C478.883 32.3559 479.218 32.2746 479.498 32.1118C479.778 31.949 480.003 31.7244 480.172 31.438C480.341 31.145 480.465 30.8065 480.543 30.4223C480.628 30.0382 480.67 29.6248 480.67 29.1821V28.977C480.67 28.5473 480.628 28.1437 480.543 27.7661C480.465 27.382 480.338 27.0434 480.162 26.7505C479.993 26.451 479.768 26.2166 479.488 26.0473C479.208 25.8781 478.87 25.7934 478.473 25.7934C478.076 25.7934 477.737 25.8781 477.457 26.0473C477.184 26.2166 476.959 26.451 476.783 26.7505C476.614 27.0434 476.49 27.382 476.412 27.7661C476.334 28.1437 476.295 28.5473 476.295 28.977ZM491.471 31.8286V23.7915H494.283V34.3579H491.637L491.471 31.8286ZM491.783 29.6606L492.613 29.6411C492.613 30.3442 492.532 30.9985 492.369 31.604C492.206 32.2029 491.962 32.7238 491.637 33.1665C491.311 33.6027 490.901 33.9445 490.406 34.1919C489.911 34.4328 489.329 34.5532 488.658 34.5532C488.144 34.5532 487.669 34.4816 487.232 34.3384C486.803 34.1886 486.432 33.9575 486.119 33.645C485.813 33.326 485.572 32.9191 485.396 32.4243C485.227 31.923 485.143 31.3208 485.143 30.6177V23.7915H487.955V30.6372C487.955 30.9497 487.991 31.2134 488.062 31.4282C488.141 31.6431 488.248 31.8188 488.385 31.9556C488.521 32.0923 488.681 32.1899 488.863 32.2485C489.052 32.3071 489.26 32.3364 489.488 32.3364C490.068 32.3364 490.523 32.2192 490.855 31.9848C491.194 31.7505 491.432 31.4315 491.568 31.0278C491.712 30.6177 491.783 30.1619 491.783 29.6606ZM501.607 23.7915V25.7837H495.455V23.7915H501.607ZM496.979 21.1841H499.791V31.1743C499.791 31.4803 499.83 31.7147 499.908 31.8774C499.993 32.0402 500.117 32.1541 500.279 32.2192C500.442 32.2778 500.647 32.3071 500.895 32.3071C501.07 32.3071 501.227 32.3006 501.363 32.2876C501.507 32.2681 501.627 32.2485 501.725 32.229L501.734 34.2993C501.493 34.3774 501.233 34.4393 500.953 34.4848C500.673 34.5304 500.364 34.5532 500.025 34.5532C499.407 34.5532 498.867 34.4523 498.404 34.2505C497.949 34.0421 497.597 33.7101 497.35 33.2544C497.102 32.7987 496.979 32.1997 496.979 31.4575V21.1841ZM553.746 29.2895H550.123V27.0044H553.746C554.306 27.0044 554.762 26.9132 555.113 26.7309C555.465 26.5421 555.722 26.2817 555.885 25.9497C556.048 25.6177 556.129 25.2433 556.129 24.8266C556.129 24.4035 556.048 24.0096 555.885 23.645C555.722 23.2804 555.465 22.9875 555.113 22.7661C554.762 22.5447 554.306 22.4341 553.746 22.4341H551.139V34.3579H548.209V20.1391H553.746C554.859 20.1391 555.813 20.341 556.607 20.7446C557.408 21.1417 558.02 21.6919 558.443 22.395C558.867 23.0981 559.078 23.9022 559.078 24.8071C559.078 25.7251 558.867 26.5194 558.443 27.1899C558.02 27.8605 557.408 28.3781 556.607 28.7427C555.813 29.1072 554.859 29.2895 553.746 29.2895ZM566.51 31.9751V27.2681C566.51 26.9295 566.454 26.6398 566.344 26.3989C566.233 26.1515 566.061 25.9595 565.826 25.8227C565.598 25.686 565.302 25.6177 564.938 25.6177C564.625 25.6177 564.355 25.673 564.127 25.7837C563.899 25.8878 563.723 26.0408 563.6 26.2427C563.476 26.438 563.414 26.6691 563.414 26.936H560.602C560.602 26.4868 560.706 26.0604 560.914 25.6567C561.122 25.2531 561.425 24.8983 561.822 24.5923C562.219 24.2798 562.691 24.0356 563.238 23.8598C563.792 23.6841 564.41 23.5962 565.094 23.5962C565.914 23.5962 566.643 23.7329 567.281 24.0063C567.919 24.2798 568.421 24.6899 568.785 25.2368C569.156 25.7837 569.342 26.4673 569.342 27.2876V31.8091C569.342 32.3885 569.378 32.8638 569.449 33.2348C569.521 33.5994 569.625 33.9184 569.762 34.1919V34.3579H566.92C566.783 34.0714 566.679 33.7134 566.607 33.2837C566.542 32.8475 566.51 32.4113 566.51 31.9751ZM566.881 27.9223L566.9 29.5141H565.328C564.957 29.5141 564.635 29.5565 564.361 29.6411C564.088 29.7257 563.863 29.8462 563.688 30.0024C563.512 30.1522 563.382 30.3279 563.297 30.5298C563.219 30.7316 563.18 30.9529 563.18 31.1938C563.18 31.4347 563.235 31.6528 563.346 31.8481C563.456 32.0369 563.616 32.1867 563.824 32.2973C564.033 32.4015 564.277 32.4536 564.557 32.4536C564.98 32.4536 565.348 32.369 565.66 32.1997C565.973 32.0304 566.214 31.8221 566.383 31.5747C566.559 31.3273 566.65 31.0929 566.656 30.8716L567.398 32.063C567.294 32.3299 567.151 32.6066 566.969 32.8931C566.793 33.1795 566.568 33.4497 566.295 33.7036C566.021 33.951 565.693 34.1561 565.309 34.3188C564.924 34.4751 564.469 34.5532 563.941 34.5532C563.271 34.5532 562.662 34.4197 562.115 34.1528C561.575 33.8794 561.145 33.505 560.826 33.0298C560.514 32.548 560.357 32.0011 560.357 31.3891C560.357 30.8358 560.462 30.3442 560.67 29.9145C560.878 29.4848 561.184 29.1235 561.588 28.8306C561.998 28.5311 562.509 28.3065 563.121 28.1567C563.733 28.0005 564.443 27.9223 565.25 27.9223H566.881ZM578.199 23.7915H580.748V34.0063C580.748 34.9699 580.533 35.7869 580.104 36.4575C579.68 37.1346 579.088 37.6457 578.326 37.9907C577.564 38.3423 576.679 38.5181 575.67 38.5181C575.227 38.5181 574.758 38.4595 574.264 38.3423C573.775 38.2251 573.307 38.0428 572.857 37.7954C572.415 37.548 572.044 37.2355 571.744 36.8579L572.984 35.1977C573.31 35.5753 573.688 35.8683 574.117 36.0766C574.547 36.2915 575.022 36.3989 575.543 36.3989C576.051 36.3989 576.48 36.3045 576.832 36.1157C577.184 35.9334 577.454 35.6632 577.643 35.3052C577.831 34.9536 577.926 34.5272 577.926 34.0259V26.2329L578.199 23.7915ZM571.09 29.2016V28.9966C571.09 28.1893 571.188 27.4569 571.383 26.7993C571.585 26.1352 571.868 25.5656 572.232 25.0903C572.604 24.6151 573.053 24.2472 573.58 23.9868C574.107 23.7264 574.703 23.5962 575.367 23.5962C576.07 23.5962 576.66 23.7264 577.135 23.9868C577.61 24.2472 578.001 24.6183 578.307 25.1001C578.613 25.5753 578.85 26.1385 579.02 26.7895C579.195 27.4341 579.332 28.1404 579.43 28.9087V29.3579C579.332 30.0936 579.186 30.7772 578.99 31.4087C578.795 32.0402 578.538 32.5936 578.219 33.0688C577.9 33.5376 577.503 33.9022 577.027 34.1626C576.559 34.423 575.999 34.5532 575.348 34.5532C574.697 34.5532 574.107 34.4197 573.58 34.1528C573.059 33.8859 572.613 33.5115 572.242 33.0298C571.871 32.548 571.585 31.9816 571.383 31.3306C571.188 30.6795 571.09 29.9699 571.09 29.2016ZM573.902 28.9966V29.2016C573.902 29.6378 573.945 30.0447 574.029 30.4223C574.114 30.8 574.244 31.1352 574.42 31.4282C574.602 31.7147 574.827 31.9393 575.094 32.102C575.367 32.2583 575.689 32.3364 576.061 32.3364C576.575 32.3364 576.995 32.229 577.32 32.0141C577.646 31.7928 577.89 31.4901 578.053 31.1059C578.215 30.7218 578.31 30.2791 578.336 29.7778V28.4985C578.323 28.0884 578.268 27.7205 578.17 27.395C578.072 27.063 577.936 26.7798 577.76 26.5454C577.584 26.311 577.356 26.1287 577.076 25.9985C576.796 25.8683 576.464 25.8032 576.08 25.8032C575.709 25.8032 575.387 25.8878 575.113 26.0571C574.846 26.2199 574.622 26.4445 574.439 26.7309C574.264 27.0174 574.13 27.3559 574.039 27.7466C573.948 28.1307 573.902 28.5473 573.902 28.9966ZM587.799 34.5532C586.979 34.5532 586.243 34.423 585.592 34.1626C584.941 33.8957 584.387 33.5278 583.932 33.0591C583.482 32.5903 583.137 32.0467 582.896 31.4282C582.656 30.8032 582.535 30.1391 582.535 29.436V29.0454C582.535 28.2446 582.649 27.5122 582.877 26.8481C583.105 26.1841 583.43 25.6079 583.854 25.1196C584.283 24.6313 584.804 24.257 585.416 23.9966C586.028 23.7296 586.718 23.5962 587.486 23.5962C588.235 23.5962 588.899 23.7199 589.479 23.9673C590.058 24.2147 590.543 24.5662 590.934 25.022C591.331 25.4777 591.63 26.0246 591.832 26.6626C592.034 27.2941 592.135 27.9972 592.135 28.772V29.9438H583.736V28.0688H589.371V27.854C589.371 27.4634 589.299 27.1151 589.156 26.8091C589.02 26.4966 588.811 26.2492 588.531 26.0669C588.251 25.8846 587.893 25.7934 587.457 25.7934C587.086 25.7934 586.767 25.8748 586.5 26.0376C586.233 26.2003 586.015 26.4282 585.846 26.7212C585.683 27.0141 585.559 27.3592 585.475 27.7563C585.396 28.147 585.357 28.5766 585.357 29.0454V29.436C585.357 29.8592 585.416 30.2498 585.533 30.6079C585.657 30.966 585.829 31.2752 586.051 31.5356C586.279 31.796 586.552 31.9979 586.871 32.1411C587.197 32.2843 587.564 32.3559 587.975 32.3559C588.482 32.3559 588.954 32.2583 589.391 32.063C589.833 31.8612 590.214 31.5584 590.533 31.1548L591.9 32.6391C591.679 32.9582 591.376 33.2641 590.992 33.5571C590.615 33.8501 590.159 34.091 589.625 34.2798C589.091 34.4621 588.482 34.5532 587.799 34.5532ZM599.449 31.438C599.449 31.2362 599.391 31.0539 599.273 30.8911C599.156 30.7283 598.938 30.5786 598.619 30.4419C598.307 30.2987 597.854 30.1684 597.262 30.0513C596.728 29.9341 596.23 29.7876 595.768 29.6118C595.312 29.4295 594.915 29.2114 594.576 28.9575C594.244 28.7036 593.984 28.4041 593.795 28.0591C593.606 27.7075 593.512 27.3071 593.512 26.8579C593.512 26.4152 593.606 25.9985 593.795 25.6079C593.99 25.2173 594.267 24.8722 594.625 24.5727C594.99 24.2667 595.432 24.0291 595.953 23.8598C596.48 23.6841 597.073 23.5962 597.73 23.5962C598.648 23.5962 599.436 23.7427 600.094 24.0356C600.758 24.3286 601.266 24.7322 601.617 25.2466C601.975 25.7544 602.154 26.3338 602.154 26.9848H599.342C599.342 26.7114 599.283 26.4673 599.166 26.2524C599.055 26.0311 598.88 25.8585 598.639 25.7348C598.404 25.6046 598.098 25.5395 597.721 25.5395C597.408 25.5395 597.138 25.5949 596.91 25.7056C596.682 25.8097 596.507 25.9529 596.383 26.1352C596.266 26.311 596.207 26.5063 596.207 26.7212C596.207 26.8839 596.24 27.0304 596.305 27.1606C596.376 27.2843 596.49 27.3983 596.646 27.5024C596.803 27.6066 597.005 27.7042 597.252 27.7954C597.506 27.88 597.818 27.9582 598.189 28.0298C598.951 28.186 599.632 28.3911 600.23 28.645C600.829 28.8924 601.305 29.2309 601.656 29.6606C602.008 30.0838 602.184 30.6404 602.184 31.3306C602.184 31.7993 602.079 32.229 601.871 32.6196C601.663 33.0102 601.363 33.352 600.973 33.645C600.582 33.9315 600.113 34.1561 599.566 34.3188C599.026 34.4751 598.417 34.5532 597.74 34.5532C596.757 34.5532 595.924 34.3774 595.24 34.0259C594.563 33.6743 594.049 33.2283 593.697 32.688C593.352 32.1411 593.18 31.5812 593.18 31.0083H595.846C595.859 31.3924 595.956 31.7016 596.139 31.936C596.327 32.1704 596.565 32.3397 596.852 32.4438C597.145 32.548 597.46 32.6001 597.799 32.6001C598.163 32.6001 598.466 32.5513 598.707 32.4536C598.948 32.3494 599.13 32.2127 599.254 32.0434C599.384 31.8677 599.449 31.6658 599.449 31.438ZM661.393 30.6372C661.393 30.3833 661.354 30.1554 661.275 29.9536C661.204 29.7453 661.067 29.5565 660.865 29.3872C660.663 29.2114 660.38 29.0389 660.016 28.8696C659.651 28.7003 659.179 28.5246 658.6 28.3423C657.955 28.1339 657.343 27.8996 656.764 27.6391C656.191 27.3787 655.683 27.076 655.24 26.7309C654.804 26.3794 654.459 25.9725 654.205 25.5102C653.958 25.048 653.834 24.5109 653.834 23.8989C653.834 23.3065 653.964 22.7694 654.225 22.2876C654.485 21.7993 654.85 21.3826 655.318 21.0376C655.787 20.686 656.34 20.4158 656.979 20.227C657.623 20.0382 658.329 19.9438 659.098 19.9438C660.146 19.9438 661.061 20.1326 661.842 20.5102C662.623 20.8878 663.229 21.4054 663.658 22.063C664.094 22.7205 664.312 23.4725 664.312 24.3188H661.402C661.402 23.9022 661.314 23.5376 661.139 23.2251C660.969 22.9061 660.709 22.6554 660.357 22.4731C660.012 22.2908 659.576 22.1997 659.049 22.1997C658.541 22.1997 658.118 22.2778 657.779 22.4341C657.441 22.5838 657.187 22.7889 657.018 23.0493C656.848 23.3032 656.764 23.5897 656.764 23.9087C656.764 24.1496 656.822 24.3677 656.939 24.563C657.063 24.7583 657.245 24.9406 657.486 25.1098C657.727 25.2791 658.023 25.4386 658.375 25.5884C658.727 25.7381 659.133 25.8846 659.596 26.0278C660.37 26.2622 661.051 26.5259 661.637 26.8188C662.229 27.1118 662.724 27.4406 663.121 27.8052C663.518 28.1697 663.818 28.5832 664.02 29.0454C664.221 29.5076 664.322 30.0317 664.322 30.6177C664.322 31.2362 664.202 31.7895 663.961 32.2778C663.72 32.7661 663.372 33.1795 662.916 33.5181C662.46 33.8566 661.917 34.1138 661.285 34.2895C660.654 34.4653 659.947 34.5532 659.166 34.5532C658.463 34.5532 657.77 34.4621 657.086 34.2798C656.402 34.091 655.781 33.8078 655.221 33.4302C654.667 33.0526 654.225 32.5708 653.893 31.9848C653.561 31.3989 653.395 30.7056 653.395 29.9048H656.334C656.334 30.3475 656.402 30.7218 656.539 31.0278C656.676 31.3338 656.868 31.5812 657.115 31.77C657.369 31.9588 657.669 32.0955 658.014 32.1802C658.365 32.2648 658.749 32.3071 659.166 32.3071C659.674 32.3071 660.09 32.2355 660.416 32.0923C660.748 31.949 660.992 31.7505 661.148 31.4966C661.311 31.2427 661.393 30.9562 661.393 30.6372ZM668.883 19.3579V34.3579H666.07V19.3579H668.883ZM668.482 28.7036H667.711C667.717 27.9679 667.815 27.2908 668.004 26.6723C668.193 26.0473 668.463 25.507 668.814 25.0513C669.166 24.589 669.586 24.2309 670.074 23.977C670.569 23.7231 671.116 23.5962 671.715 23.5962C672.236 23.5962 672.708 23.671 673.131 23.8208C673.561 23.964 673.928 24.1984 674.234 24.5239C674.547 24.8429 674.788 25.2628 674.957 25.7837C675.126 26.3045 675.211 26.936 675.211 27.6782V34.3579H672.379V27.6587C672.379 27.1899 672.311 26.8221 672.174 26.5552C672.044 26.2817 671.852 26.0897 671.598 25.979C671.35 25.8618 671.044 25.8032 670.68 25.8032C670.276 25.8032 669.931 25.8781 669.645 26.0278C669.365 26.1776 669.14 26.3859 668.971 26.6528C668.801 26.9132 668.678 27.2192 668.6 27.5708C668.521 27.9223 668.482 28.3 668.482 28.7036ZM676.9 29.1821V28.977C676.9 28.2023 677.011 27.4894 677.232 26.8384C677.454 26.1808 677.776 25.6112 678.199 25.1294C678.622 24.6476 679.143 24.2733 679.762 24.0063C680.38 23.7329 681.09 23.5962 681.891 23.5962C682.691 23.5962 683.404 23.7329 684.029 24.0063C684.654 24.2733 685.178 24.6476 685.602 25.1294C686.031 25.6112 686.357 26.1808 686.578 26.8384C686.799 27.4894 686.91 28.2023 686.91 28.977V29.1821C686.91 29.9503 686.799 30.6632 686.578 31.3208C686.357 31.9718 686.031 32.5415 685.602 33.0298C685.178 33.5115 684.658 33.8859 684.039 34.1528C683.421 34.4197 682.711 34.5532 681.91 34.5532C681.109 34.5532 680.396 34.4197 679.771 34.1528C679.153 33.8859 678.629 33.5115 678.199 33.0298C677.776 32.5415 677.454 31.9718 677.232 31.3208C677.011 30.6632 676.9 29.9503 676.9 29.1821ZM679.713 28.977V29.1821C679.713 29.6248 679.752 30.0382 679.83 30.4223C679.908 30.8065 680.032 31.145 680.201 31.438C680.377 31.7244 680.605 31.949 680.885 32.1118C681.165 32.2746 681.507 32.3559 681.91 32.3559C682.301 32.3559 682.636 32.2746 682.916 32.1118C683.196 31.949 683.421 31.7244 683.59 31.438C683.759 31.145 683.883 30.8065 683.961 30.4223C684.046 30.0382 684.088 29.6248 684.088 29.1821V28.977C684.088 28.5473 684.046 28.1437 683.961 27.7661C683.883 27.382 683.756 27.0434 683.58 26.7505C683.411 26.451 683.186 26.2166 682.906 26.0473C682.626 25.8781 682.288 25.7934 681.891 25.7934C681.493 25.7934 681.155 25.8781 680.875 26.0473C680.602 26.2166 680.377 26.451 680.201 26.7505C680.032 27.0434 679.908 27.382 679.83 27.7661C679.752 28.1437 679.713 28.5473 679.713 28.977ZM691.451 25.8227V38.4204H688.639V23.7915H691.246L691.451 25.8227ZM698.141 28.9575V29.1626C698.141 29.9308 698.049 30.6437 697.867 31.3013C697.691 31.9588 697.431 32.5317 697.086 33.02C696.741 33.5018 696.311 33.8794 695.797 34.1528C695.289 34.4197 694.703 34.5532 694.039 34.5532C693.395 34.5532 692.835 34.423 692.359 34.1626C691.884 33.9022 691.484 33.5376 691.158 33.0688C690.839 32.5936 690.582 32.0434 690.387 31.4184C690.191 30.7934 690.042 30.1229 689.938 29.4067V28.8696C690.042 28.1014 690.191 27.3983 690.387 26.7602C690.582 26.1157 690.839 25.5591 691.158 25.0903C691.484 24.6151 691.881 24.2472 692.35 23.9868C692.825 23.7264 693.382 23.5962 694.02 23.5962C694.69 23.5962 695.279 23.7231 695.787 23.977C696.301 24.2309 696.731 24.5955 697.076 25.0708C697.428 25.546 697.691 26.1125 697.867 26.77C698.049 27.4276 698.141 28.1567 698.141 28.9575ZM695.318 29.1626V28.9575C695.318 28.5083 695.279 28.0949 695.201 27.7173C695.13 27.3332 695.012 26.9979 694.85 26.7114C694.693 26.425 694.485 26.2036 694.225 26.0473C693.971 25.8846 693.661 25.8032 693.297 25.8032C692.913 25.8032 692.584 25.8651 692.311 25.9888C692.044 26.1125 691.826 26.2915 691.656 26.5259C691.487 26.7602 691.36 27.0402 691.275 27.3657C691.191 27.6912 691.139 28.0591 691.119 28.4692V29.8266C691.152 30.3084 691.243 30.7414 691.393 31.1255C691.542 31.5031 691.773 31.8026 692.086 32.0239C692.398 32.2453 692.809 32.3559 693.316 32.3559C693.688 32.3559 694 32.2746 694.254 32.1118C694.508 31.9425 694.713 31.7114 694.869 31.4184C695.032 31.1255 695.146 30.7869 695.211 30.4028C695.283 30.0187 695.318 29.6053 695.318 29.1626ZM750.426 29.2895H746.803V27.0044H750.426C750.986 27.0044 751.441 26.9132 751.793 26.7309C752.145 26.5421 752.402 26.2817 752.564 25.9497C752.727 25.6177 752.809 25.2433 752.809 24.8266C752.809 24.4035 752.727 24.0096 752.564 23.645C752.402 23.2804 752.145 22.9875 751.793 22.7661C751.441 22.5447 750.986 22.4341 750.426 22.4341H747.818V34.3579H744.889V20.1391H750.426C751.539 20.1391 752.493 20.341 753.287 20.7446C754.088 21.1417 754.7 21.6919 755.123 22.395C755.546 23.0981 755.758 23.9022 755.758 24.8071C755.758 25.7251 755.546 26.5194 755.123 27.1899C754.7 27.8605 754.088 28.3781 753.287 28.7427C752.493 29.1072 751.539 29.2895 750.426 29.2895ZM760.416 26.0962V34.3579H757.604V23.7915H760.25L760.416 26.0962ZM763.6 23.7231L763.551 26.3306C763.414 26.311 763.248 26.2947 763.053 26.2817C762.864 26.2622 762.691 26.2524 762.535 26.2524C762.138 26.2524 761.793 26.3045 761.5 26.4087C761.214 26.5063 760.973 26.6528 760.777 26.8481C760.589 27.0434 760.445 27.2811 760.348 27.561C760.257 27.841 760.204 28.16 760.191 28.5181L759.625 28.3423C759.625 27.6587 759.693 27.0304 759.83 26.4575C759.967 25.8781 760.165 25.3735 760.426 24.9438C760.693 24.5141 761.018 24.1821 761.402 23.9477C761.786 23.7134 762.226 23.5962 762.721 23.5962C762.877 23.5962 763.036 23.6092 763.199 23.6352C763.362 23.6548 763.495 23.6841 763.6 23.7231ZM764.186 29.1821V28.977C764.186 28.2023 764.296 27.4894 764.518 26.8384C764.739 26.1808 765.061 25.6112 765.484 25.1294C765.908 24.6476 766.428 24.2733 767.047 24.0063C767.665 23.7329 768.375 23.5962 769.176 23.5962C769.977 23.5962 770.689 23.7329 771.314 24.0063C771.939 24.2733 772.464 24.6476 772.887 25.1294C773.316 25.6112 773.642 26.1808 773.863 26.8384C774.085 27.4894 774.195 28.2023 774.195 28.977V29.1821C774.195 29.9503 774.085 30.6632 773.863 31.3208C773.642 31.9718 773.316 32.5415 772.887 33.0298C772.464 33.5115 771.943 33.8859 771.324 34.1528C770.706 34.4197 769.996 34.5532 769.195 34.5532C768.395 34.5532 767.682 34.4197 767.057 34.1528C766.438 33.8859 765.914 33.5115 765.484 33.0298C765.061 32.5415 764.739 31.9718 764.518 31.3208C764.296 30.6632 764.186 29.9503 764.186 29.1821ZM766.998 28.977V29.1821C766.998 29.6248 767.037 30.0382 767.115 30.4223C767.193 30.8065 767.317 31.145 767.486 31.438C767.662 31.7244 767.89 31.949 768.17 32.1118C768.45 32.2746 768.792 32.3559 769.195 32.3559C769.586 32.3559 769.921 32.2746 770.201 32.1118C770.481 31.949 770.706 31.7244 770.875 31.438C771.044 31.145 771.168 30.8065 771.246 30.4223C771.331 30.0382 771.373 29.6248 771.373 29.1821V28.977C771.373 28.5473 771.331 28.1437 771.246 27.7661C771.168 27.382 771.041 27.0434 770.865 26.7505C770.696 26.451 770.471 26.2166 770.191 26.0473C769.911 25.8781 769.573 25.7934 769.176 25.7934C768.779 25.7934 768.44 25.8781 768.16 26.0473C767.887 26.2166 767.662 26.451 767.486 26.7505C767.317 27.0434 767.193 27.382 767.115 27.7661C767.037 28.1437 766.998 28.5473 766.998 28.977ZM776.08 23.7915H778.902V34.9927C778.902 35.7739 778.759 36.4347 778.473 36.9751C778.186 37.5154 777.773 37.9256 777.232 38.2056C776.692 38.4855 776.038 38.6255 775.27 38.6255C775.029 38.6255 774.794 38.6125 774.566 38.5864C774.332 38.5604 774.091 38.5181 773.844 38.4595L773.854 36.3013C774.01 36.3273 774.163 36.3468 774.312 36.3598C774.456 36.3794 774.602 36.3891 774.752 36.3891C775.045 36.3891 775.289 36.3403 775.484 36.2427C775.68 36.145 775.826 35.992 775.924 35.7837C776.028 35.5819 776.08 35.3182 776.08 34.9927V23.7915ZM775.855 21.0376C775.855 20.6274 775.999 20.2889 776.285 20.022C776.578 19.755 776.962 19.6216 777.438 19.6216C777.919 19.6216 778.303 19.755 778.59 20.022C778.876 20.2889 779.02 20.6274 779.02 21.0376C779.02 21.4477 778.876 21.7863 778.59 22.0532C778.303 22.3201 777.919 22.4536 777.438 22.4536C776.962 22.4536 776.578 22.3201 776.285 22.0532C775.999 21.7863 775.855 21.4477 775.855 21.0376ZM786.002 34.5532C785.182 34.5532 784.446 34.423 783.795 34.1626C783.144 33.8957 782.59 33.5278 782.135 33.0591C781.686 32.5903 781.34 32.0467 781.1 31.4282C780.859 30.8032 780.738 30.1391 780.738 29.436V29.0454C780.738 28.2446 780.852 27.5122 781.08 26.8481C781.308 26.1841 781.633 25.6079 782.057 25.1196C782.486 24.6313 783.007 24.257 783.619 23.9966C784.231 23.7296 784.921 23.5962 785.689 23.5962C786.438 23.5962 787.102 23.7199 787.682 23.9673C788.261 24.2147 788.746 24.5662 789.137 25.022C789.534 25.4777 789.833 26.0246 790.035 26.6626C790.237 27.2941 790.338 27.9972 790.338 28.772V29.9438H781.939V28.0688H787.574V27.854C787.574 27.4634 787.503 27.1151 787.359 26.8091C787.223 26.4966 787.014 26.2492 786.734 26.0669C786.454 25.8846 786.096 25.7934 785.66 25.7934C785.289 25.7934 784.97 25.8748 784.703 26.0376C784.436 26.2003 784.218 26.4282 784.049 26.7212C783.886 27.0141 783.762 27.3592 783.678 27.7563C783.6 28.147 783.561 28.5766 783.561 29.0454V29.436C783.561 29.8592 783.619 30.2498 783.736 30.6079C783.86 30.966 784.033 31.2752 784.254 31.5356C784.482 31.796 784.755 31.9979 785.074 32.1411C785.4 32.2843 785.768 32.3559 786.178 32.3559C786.686 32.3559 787.158 32.2583 787.594 32.063C788.036 31.8612 788.417 31.5584 788.736 31.1548L790.104 32.6391C789.882 32.9582 789.579 33.2641 789.195 33.5571C788.818 33.8501 788.362 34.091 787.828 34.2798C787.294 34.4621 786.686 34.5532 786.002 34.5532ZM796.305 32.3559C796.65 32.3559 796.956 32.2908 797.223 32.1606C797.49 32.0239 797.698 31.8351 797.848 31.5942C798.004 31.3468 798.085 31.0571 798.092 30.7251H800.738C800.732 31.4673 800.533 32.1281 800.143 32.7075C799.752 33.2804 799.228 33.7329 798.57 34.0649C797.913 34.3904 797.177 34.5532 796.363 34.5532C795.543 34.5532 794.827 34.4165 794.215 34.1431C793.609 33.8696 793.105 33.492 792.701 33.0102C792.298 32.522 791.995 31.9556 791.793 31.311C791.591 30.66 791.49 29.9634 791.49 29.2212V28.938C791.49 28.1893 791.591 27.4927 791.793 26.8481C791.995 26.1971 792.298 25.6307 792.701 25.1489C793.105 24.6606 793.609 24.2798 794.215 24.0063C794.82 23.7329 795.53 23.5962 796.344 23.5962C797.21 23.5962 797.968 23.7622 798.619 24.0942C799.277 24.4263 799.791 24.9015 800.162 25.52C800.54 26.132 800.732 26.8579 800.738 27.6977H798.092C798.085 27.3462 798.01 27.0272 797.867 26.7407C797.73 26.4542 797.529 26.2264 797.262 26.0571C797.001 25.8813 796.679 25.7934 796.295 25.7934C795.885 25.7934 795.549 25.8813 795.289 26.0571C795.029 26.2264 794.827 26.4608 794.684 26.7602C794.54 27.0532 794.439 27.3885 794.381 27.7661C794.329 28.1372 794.303 28.5278 794.303 28.938V29.2212C794.303 29.6313 794.329 30.0252 794.381 30.4028C794.433 30.7804 794.531 31.1157 794.674 31.4087C794.824 31.7016 795.029 31.9328 795.289 32.102C795.549 32.2713 795.888 32.3559 796.305 32.3559ZM807.545 23.7915V25.7837H801.393V23.7915H807.545ZM802.916 21.1841H805.729V31.1743C805.729 31.4803 805.768 31.7147 805.846 31.8774C805.93 32.0402 806.054 32.1541 806.217 32.2192C806.38 32.2778 806.585 32.3071 806.832 32.3071C807.008 32.3071 807.164 32.3006 807.301 32.2876C807.444 32.2681 807.564 32.2485 807.662 32.229L807.672 34.2993C807.431 34.3774 807.171 34.4393 806.891 34.4848C806.611 34.5304 806.301 34.5532 805.963 34.5532C805.344 34.5532 804.804 34.4523 804.342 34.2505C803.886 34.0421 803.535 33.7101 803.287 33.2544C803.04 32.7987 802.916 32.1997 802.916 31.4575V21.1841ZM814.859 31.438C814.859 31.2362 814.801 31.0539 814.684 30.8911C814.566 30.7283 814.348 30.5786 814.029 30.4419C813.717 30.2987 813.264 30.1684 812.672 30.0513C812.138 29.9341 811.64 29.7876 811.178 29.6118C810.722 29.4295 810.325 29.2114 809.986 28.9575C809.654 28.7036 809.394 28.4041 809.205 28.0591C809.016 27.7075 808.922 27.3071 808.922 26.8579C808.922 26.4152 809.016 25.9985 809.205 25.6079C809.4 25.2173 809.677 24.8722 810.035 24.5727C810.4 24.2667 810.842 24.0291 811.363 23.8598C811.891 23.6841 812.483 23.5962 813.141 23.5962C814.059 23.5962 814.846 23.7427 815.504 24.0356C816.168 24.3286 816.676 24.7322 817.027 25.2466C817.385 25.7544 817.564 26.3338 817.564 26.9848H814.752C814.752 26.7114 814.693 26.4673 814.576 26.2524C814.465 26.0311 814.29 25.8585 814.049 25.7348C813.814 25.6046 813.508 25.5395 813.131 25.5395C812.818 25.5395 812.548 25.5949 812.32 25.7056C812.092 25.8097 811.917 25.9529 811.793 26.1352C811.676 26.311 811.617 26.5063 811.617 26.7212C811.617 26.8839 811.65 27.0304 811.715 27.1606C811.786 27.2843 811.9 27.3983 812.057 27.5024C812.213 27.6066 812.415 27.7042 812.662 27.7954C812.916 27.88 813.229 27.9582 813.6 28.0298C814.361 28.186 815.042 28.3911 815.641 28.645C816.24 28.8924 816.715 29.2309 817.066 29.6606C817.418 30.0838 817.594 30.6404 817.594 31.3306C817.594 31.7993 817.49 32.229 817.281 32.6196C817.073 33.0102 816.773 33.352 816.383 33.645C815.992 33.9315 815.523 34.1561 814.977 34.3188C814.436 34.4751 813.827 34.5532 813.15 34.5532C812.167 34.5532 811.334 34.3774 810.65 34.0259C809.973 33.6743 809.459 33.2283 809.107 32.688C808.762 32.1411 808.59 31.5812 808.59 31.0083H811.256C811.269 31.3924 811.367 31.7016 811.549 31.936C811.738 32.1704 811.975 32.3397 812.262 32.4438C812.555 32.548 812.87 32.6001 813.209 32.6001C813.574 32.6001 813.876 32.5513 814.117 32.4536C814.358 32.3494 814.54 32.2127 814.664 32.0434C814.794 31.8677 814.859 31.6658 814.859 31.438ZM875.992 20.1391V34.3579H873.062L867.35 24.8266V34.3579H864.42V20.1391H867.35L873.072 29.6802V20.1391H875.992ZM883.229 34.5532C882.408 34.5532 881.673 34.423 881.021 34.1626C880.37 33.8957 879.817 33.5278 879.361 33.0591C878.912 32.5903 878.567 32.0467 878.326 31.4282C878.085 30.8032 877.965 30.1391 877.965 29.436V29.0454C877.965 28.2446 878.079 27.5122 878.307 26.8481C878.535 26.1841 878.86 25.6079 879.283 25.1196C879.713 24.6313 880.234 24.257 880.846 23.9966C881.458 23.7296 882.148 23.5962 882.916 23.5962C883.665 23.5962 884.329 23.7199 884.908 23.9673C885.488 24.2147 885.973 24.5662 886.363 25.022C886.76 25.4777 887.06 26.0246 887.262 26.6626C887.464 27.2941 887.564 27.9972 887.564 28.772V29.9438H879.166V28.0688H884.801V27.854C884.801 27.4634 884.729 27.1151 884.586 26.8091C884.449 26.4966 884.241 26.2492 883.961 26.0669C883.681 25.8846 883.323 25.7934 882.887 25.7934C882.516 25.7934 882.197 25.8748 881.93 26.0376C881.663 26.2003 881.445 26.4282 881.275 26.7212C881.113 27.0141 880.989 27.3592 880.904 27.7563C880.826 28.147 880.787 28.5766 880.787 29.0454V29.436C880.787 29.8592 880.846 30.2498 880.963 30.6079C881.087 30.966 881.259 31.2752 881.48 31.5356C881.708 31.796 881.982 31.9979 882.301 32.1411C882.626 32.2843 882.994 32.3559 883.404 32.3559C883.912 32.3559 884.384 32.2583 884.82 32.063C885.263 31.8612 885.644 31.5584 885.963 31.1548L887.33 32.6391C887.109 32.9582 886.806 33.2641 886.422 33.5571C886.044 33.8501 885.589 34.091 885.055 34.2798C884.521 34.4621 883.912 34.5532 883.229 34.5532ZM892.184 31.6235L894.381 23.7915H896.168L895.592 26.8677L893.395 34.3579H891.9L892.184 31.6235ZM891.07 23.7915L892.643 31.6138L892.789 34.3579H891.031L888.355 23.7915H891.07ZM898.18 31.4868L899.713 23.7915H902.438L899.762 34.3579H898.014L898.18 31.4868ZM896.412 23.7915L898.6 31.5649L898.902 34.3579H897.398L895.201 26.8774L894.645 23.7915H896.412ZM909.566 31.438C909.566 31.2362 909.508 31.0539 909.391 30.8911C909.273 30.7283 909.055 30.5786 908.736 30.4419C908.424 30.2987 907.971 30.1684 907.379 30.0513C906.845 29.9341 906.347 29.7876 905.885 29.6118C905.429 29.4295 905.032 29.2114 904.693 28.9575C904.361 28.7036 904.101 28.4041 903.912 28.0591C903.723 27.7075 903.629 27.3071 903.629 26.8579C903.629 26.4152 903.723 25.9985 903.912 25.6079C904.107 25.2173 904.384 24.8722 904.742 24.5727C905.107 24.2667 905.549 24.0291 906.07 23.8598C906.598 23.6841 907.19 23.5962 907.848 23.5962C908.766 23.5962 909.553 23.7427 910.211 24.0356C910.875 24.3286 911.383 24.7322 911.734 25.2466C912.092 25.7544 912.271 26.3338 912.271 26.9848H909.459C909.459 26.7114 909.4 26.4673 909.283 26.2524C909.173 26.0311 908.997 25.8585 908.756 25.7348C908.521 25.6046 908.215 25.5395 907.838 25.5395C907.525 25.5395 907.255 25.5949 907.027 25.7056C906.799 25.8097 906.624 25.9529 906.5 26.1352C906.383 26.311 906.324 26.5063 906.324 26.7212C906.324 26.8839 906.357 27.0304 906.422 27.1606C906.493 27.2843 906.607 27.3983 906.764 27.5024C906.92 27.6066 907.122 27.7042 907.369 27.7954C907.623 27.88 907.936 27.9582 908.307 28.0298C909.068 28.186 909.749 28.3911 910.348 28.645C910.947 28.8924 911.422 29.2309 911.773 29.6606C912.125 30.0838 912.301 30.6404 912.301 31.3306C912.301 31.7993 912.197 32.229 911.988 32.6196C911.78 33.0102 911.48 33.352 911.09 33.645C910.699 33.9315 910.23 34.1561 909.684 34.3188C909.143 34.4751 908.535 34.5532 907.857 34.5532C906.874 34.5532 906.041 34.3774 905.357 34.0259C904.68 33.6743 904.166 33.2283 903.814 32.688C903.469 32.1411 903.297 31.5812 903.297 31.0083H905.963C905.976 31.3924 906.074 31.7016 906.256 31.936C906.445 32.1704 906.682 32.3397 906.969 32.4438C907.262 32.548 907.577 32.6001 907.916 32.6001C908.281 32.6001 908.583 32.5513 908.824 32.4536C909.065 32.3494 909.247 32.2127 909.371 32.0434C909.501 31.8677 909.566 31.6658 909.566 31.438Z" fill="#274C5B"/>
</svg>
