<svg width="565" height="24" viewBox="0 0 565 24" fill="none" xmlns="http://www.w3.org/2000/svg">
<path d="M11.543 9.93016V12.2153H4.12109V9.93016H11.543ZM4.99023 4.13914V18.3579H2.06055V4.13914H4.99023ZM13.6328 4.13914V18.3579H10.7129V4.13914H13.6328ZM15.5566 13.1821V12.977C15.5566 12.2023 15.6673 11.4894 15.8887 10.8384C16.11 10.1808 16.4323 9.61115 16.8555 9.12938C17.2786 8.64761 17.7995 8.27326 18.418 8.00633C19.0365 7.73289 19.7461 7.59618 20.5469 7.59618C21.3477 7.59618 22.0605 7.73289 22.6855 8.00633C23.3105 8.27326 23.8346 8.64761 24.2578 9.12938C24.6875 9.61115 25.013 10.1808 25.2344 10.8384C25.4557 11.4894 25.5664 12.2023 25.5664 12.977V13.1821C25.5664 13.9503 25.4557 14.6632 25.2344 15.3208C25.013 15.9718 24.6875 16.5415 24.2578 17.0298C23.8346 17.5115 23.3138 17.8859 22.6953 18.1528C22.0768 18.4197 21.3672 18.5532 20.5664 18.5532C19.7656 18.5532 19.0527 18.4197 18.4277 18.1528C17.8092 17.8859 17.2852 17.5115 16.8555 17.0298C16.4323 16.5415 16.11 15.9718 15.8887 15.3208C15.6673 14.6632 15.5566 13.9503 15.5566 13.1821ZM18.3691 12.977V13.1821C18.3691 13.6248 18.4082 14.0382 18.4863 14.4223C18.5645 14.8065 18.6882 15.145 18.8574 15.438C19.0332 15.7244 19.2611 15.949 19.541 16.1118C19.821 16.2746 20.1628 16.3559 20.5664 16.3559C20.957 16.3559 21.2923 16.2746 21.5723 16.1118C21.8522 15.949 22.0768 15.7244 22.2461 15.438C22.4154 15.145 22.5391 14.8065 22.6172 14.4223C22.7018 14.0382 22.7441 13.6248 22.7441 13.1821V12.977C22.7441 12.5473 22.7018 12.1437 22.6172 11.7661C22.5391 11.382 22.4121 11.0434 22.2363 10.7505C22.0671 10.451 21.8424 10.2166 21.5625 10.0473C21.2826 9.87808 20.944 9.79344 20.5469 9.79344C20.1497 9.79344 19.8112 9.87808 19.5312 10.0473C19.2578 10.2166 19.0332 10.451 18.8574 10.7505C18.6882 11.0434 18.5645 11.382 18.4863 11.7661C18.4082 12.1437 18.3691 12.5473 18.3691 12.977ZM30.1074 9.97899V18.3579H27.2852V7.79149H29.9316L30.1074 9.97899ZM29.7168 12.7036H28.9355C28.9355 11.9679 29.0234 11.2908 29.1992 10.6723C29.3815 10.0473 29.6452 9.50698 29.9902 9.05125C30.3418 8.58901 30.7747 8.23094 31.2891 7.97704C31.8034 7.72313 32.3991 7.59618 33.0762 7.59618C33.5449 7.59618 33.9746 7.66779 34.3652 7.81102C34.7559 7.94774 35.0911 8.16584 35.3711 8.46532C35.6576 8.75829 35.8789 9.1424 36.0352 9.61766C36.1914 10.0864 36.2695 10.6496 36.2695 11.3071V18.3579H33.457V11.6196C33.457 11.1378 33.3919 10.7667 33.2617 10.5063C33.1315 10.2459 32.946 10.0636 32.7051 9.95946C32.4707 9.85529 32.1875 9.80321 31.8555 9.80321C31.4909 9.80321 31.1719 9.87808 30.8984 10.0278C30.6315 10.1776 30.4102 10.3859 30.2344 10.6528C30.0586 10.9132 29.9284 11.2192 29.8438 11.5708C29.7591 11.9223 29.7168 12.3 29.7168 12.7036ZM36.0059 12.3813L35 12.5083C35 11.8182 35.0846 11.1769 35.2539 10.5845C35.4297 9.99201 35.6868 9.47118 36.0254 9.02196C36.3704 8.57274 36.7969 8.22443 37.3047 7.97704C37.8125 7.72313 38.3984 7.59618 39.0625 7.59618C39.5703 7.59618 40.0326 7.67105 40.4492 7.82079C40.8659 7.96401 41.2207 8.19513 41.5137 8.51414C41.8132 8.82664 42.041 9.2368 42.1973 9.74461C42.36 10.2524 42.4414 10.8742 42.4414 11.6098V18.3579H39.6191V11.6098C39.6191 11.1216 39.554 10.7505 39.4238 10.4966C39.3001 10.2362 39.1178 10.0571 38.877 9.95946C38.6426 9.85529 38.3626 9.80321 38.0371 9.80321C37.6986 9.80321 37.4023 9.87157 37.1484 10.0083C36.8945 10.1385 36.6829 10.3208 36.5137 10.5552C36.3444 10.7895 36.2174 11.063 36.1328 11.3755C36.0482 11.6815 36.0059 12.0167 36.0059 12.3813ZM49.4824 18.5532C48.6621 18.5532 47.9264 18.423 47.2754 18.1626C46.6243 17.8957 46.071 17.5278 45.6152 17.0591C45.166 16.5903 44.821 16.0467 44.5801 15.4282C44.3392 14.8032 44.2188 14.1391 44.2188 13.436V13.0454C44.2188 12.2446 44.3327 11.5122 44.5605 10.8481C44.7884 10.1841 45.1139 9.60789 45.5371 9.11961C45.9668 8.63133 46.4876 8.25698 47.0996 7.99657C47.7116 7.72964 48.4017 7.59618 49.1699 7.59618C49.9186 7.59618 50.5827 7.71987 51.1621 7.96727C51.7415 8.21467 52.2266 8.56623 52.6172 9.02196C53.0143 9.47769 53.3138 10.0246 53.5156 10.6626C53.7174 11.2941 53.8184 11.9972 53.8184 12.772V13.9438H45.4199V12.0688H51.0547V11.854C51.0547 11.4634 50.9831 11.1151 50.8398 10.8091C50.7031 10.4966 50.4948 10.2492 50.2148 10.0669C49.9349 9.88459 49.5768 9.79344 49.1406 9.79344C48.7695 9.79344 48.4505 9.87482 48.1836 10.0376C47.9167 10.2003 47.6986 10.4282 47.5293 10.7212C47.3665 11.0141 47.2428 11.3592 47.1582 11.7563C47.0801 12.147 47.041 12.5766 47.041 13.0454V13.436C47.041 13.8592 47.0996 14.2498 47.2168 14.6079C47.3405 14.966 47.513 15.2752 47.7344 15.5356C47.9622 15.796 48.2357 15.9979 48.5547 16.1411C48.8802 16.2843 49.248 16.3559 49.6582 16.3559C50.166 16.3559 50.638 16.2583 51.0742 16.063C51.5169 15.8612 51.8978 15.5584 52.2168 15.1548L53.584 16.6391C53.3626 16.9582 53.0599 17.2641 52.6758 17.5571C52.2982 17.8501 51.8424 18.091 51.3086 18.2798C50.7747 18.4621 50.166 18.5532 49.4824 18.5532ZM106.201 6.57079L102.334 18.3579H99.2188L104.502 4.13914H106.484L106.201 6.57079ZM109.414 18.3579L105.537 6.57079L105.225 4.13914H107.227L112.539 18.3579H109.414ZM109.238 13.0649V15.3598H101.729V13.0649H109.238ZM113.682 3.35789H116.494V15.936L116.211 18.3579H113.682V3.35789ZM123.184 12.9673V13.1723C123.184 13.9601 123.099 14.6828 122.93 15.3403C122.767 15.9979 122.513 16.5675 122.168 17.0493C121.823 17.5246 121.393 17.8957 120.879 18.1626C120.371 18.423 119.772 18.5532 119.082 18.5532C118.438 18.5532 117.878 18.423 117.402 18.1626C116.934 17.9022 116.54 17.5343 116.221 17.0591C115.902 16.5838 115.645 16.0272 115.449 15.3891C115.254 14.7511 115.107 14.0545 115.01 13.2993V12.8501C115.107 12.0949 115.254 11.3983 115.449 10.7602C115.645 10.1222 115.902 9.56558 116.221 9.09032C116.54 8.61506 116.934 8.24722 117.402 7.9868C117.871 7.72638 118.424 7.59618 119.062 7.59618C119.759 7.59618 120.365 7.72964 120.879 7.99657C121.4 8.25698 121.829 8.62808 122.168 9.10985C122.513 9.58511 122.767 10.1515 122.93 10.8091C123.099 11.4601 123.184 12.1795 123.184 12.9673ZM120.371 13.1723V12.9673C120.371 12.5376 120.339 12.1339 120.273 11.7563C120.215 11.3722 120.111 11.0369 119.961 10.7505C119.811 10.4575 119.606 10.2264 119.346 10.0571C119.092 9.88784 118.763 9.80321 118.359 9.80321C117.975 9.80321 117.65 9.86831 117.383 9.99852C117.116 10.1287 116.895 10.311 116.719 10.5454C116.549 10.7798 116.423 11.0597 116.338 11.3852C116.253 11.7042 116.201 12.0558 116.182 12.4399V13.7192C116.201 14.2335 116.286 14.6893 116.436 15.0864C116.592 15.477 116.826 15.7863 117.139 16.0141C117.458 16.2355 117.871 16.3462 118.379 16.3462C118.776 16.3462 119.105 16.2681 119.365 16.1118C119.626 15.9556 119.827 15.7342 119.971 15.4477C120.12 15.1613 120.225 14.826 120.283 14.4419C120.342 14.0513 120.371 13.6281 120.371 13.1723ZM124.482 13.1821V12.977C124.482 12.2023 124.593 11.4894 124.814 10.8384C125.036 10.1808 125.358 9.61115 125.781 9.12938C126.204 8.64761 126.725 8.27326 127.344 8.00633C127.962 7.73289 128.672 7.59618 129.473 7.59618C130.273 7.59618 130.986 7.73289 131.611 8.00633C132.236 8.27326 132.76 8.64761 133.184 9.12938C133.613 9.61115 133.939 10.1808 134.16 10.8384C134.382 11.4894 134.492 12.2023 134.492 12.977V13.1821C134.492 13.9503 134.382 14.6632 134.16 15.3208C133.939 15.9718 133.613 16.5415 133.184 17.0298C132.76 17.5115 132.24 17.8859 131.621 18.1528C131.003 18.4197 130.293 18.5532 129.492 18.5532C128.691 18.5532 127.979 18.4197 127.354 18.1528C126.735 17.8859 126.211 17.5115 125.781 17.0298C125.358 16.5415 125.036 15.9718 124.814 15.3208C124.593 14.6632 124.482 13.9503 124.482 13.1821ZM127.295 12.977V13.1821C127.295 13.6248 127.334 14.0382 127.412 14.4223C127.49 14.8065 127.614 15.145 127.783 15.438C127.959 15.7244 128.187 15.949 128.467 16.1118C128.747 16.2746 129.089 16.3559 129.492 16.3559C129.883 16.3559 130.218 16.2746 130.498 16.1118C130.778 15.949 131.003 15.7244 131.172 15.438C131.341 15.145 131.465 14.8065 131.543 14.4223C131.628 14.0382 131.67 13.6248 131.67 13.1821V12.977C131.67 12.5473 131.628 12.1437 131.543 11.7661C131.465 11.382 131.338 11.0434 131.162 10.7505C130.993 10.451 130.768 10.2166 130.488 10.0473C130.208 9.87808 129.87 9.79344 129.473 9.79344C129.076 9.79344 128.737 9.87808 128.457 10.0473C128.184 10.2166 127.959 10.451 127.783 10.7505C127.614 11.0434 127.49 11.382 127.412 11.7661C127.334 12.1437 127.295 12.5473 127.295 12.977ZM142.471 15.8286V7.79149H145.283V18.3579H142.637L142.471 15.8286ZM142.783 13.6606L143.613 13.6411C143.613 14.3442 143.532 14.9985 143.369 15.604C143.206 16.2029 142.962 16.7238 142.637 17.1665C142.311 17.6027 141.901 17.9445 141.406 18.1919C140.911 18.4328 140.329 18.5532 139.658 18.5532C139.144 18.5532 138.669 18.4816 138.232 18.3384C137.803 18.1886 137.432 17.9575 137.119 17.645C136.813 17.326 136.572 16.9191 136.396 16.4243C136.227 15.923 136.143 15.3208 136.143 14.6177V7.79149H138.955V14.6372C138.955 14.9497 138.991 15.2134 139.062 15.4282C139.141 15.6431 139.248 15.8188 139.385 15.9556C139.521 16.0923 139.681 16.1899 139.863 16.2485C140.052 16.3071 140.26 16.3364 140.488 16.3364C141.068 16.3364 141.523 16.2192 141.855 15.9848C142.194 15.7505 142.432 15.4315 142.568 15.0278C142.712 14.6177 142.783 14.1619 142.783 13.6606ZM152.607 7.79149V9.78368H146.455V7.79149H152.607ZM147.979 5.18407H150.791V15.1743C150.791 15.4803 150.83 15.7147 150.908 15.8774C150.993 16.0402 151.117 16.1541 151.279 16.2192C151.442 16.2778 151.647 16.3071 151.895 16.3071C152.07 16.3071 152.227 16.3006 152.363 16.2876C152.507 16.2681 152.627 16.2485 152.725 16.229L152.734 18.2993C152.493 18.3774 152.233 18.4393 151.953 18.4848C151.673 18.5304 151.364 18.5532 151.025 18.5532C150.407 18.5532 149.867 18.4523 149.404 18.2505C148.949 18.0421 148.597 17.7101 148.35 17.2544C148.102 16.7987 147.979 16.1997 147.979 15.4575V5.18407ZM204.746 13.2895H201.123V11.0044H204.746C205.306 11.0044 205.762 10.9132 206.113 10.7309C206.465 10.5421 206.722 10.2817 206.885 9.94969C207.048 9.61766 207.129 9.24331 207.129 8.82664C207.129 8.40347 207.048 8.00959 206.885 7.645C206.722 7.28042 206.465 6.98745 206.113 6.7661C205.762 6.54474 205.306 6.43407 204.746 6.43407H202.139V18.3579H199.209V4.13914H204.746C205.859 4.13914 206.813 4.34097 207.607 4.74461C208.408 5.14175 209.02 5.69188 209.443 6.395C209.867 7.09813 210.078 7.90217 210.078 8.80711C210.078 9.72508 209.867 10.5194 209.443 11.1899C209.02 11.8605 208.408 12.3781 207.607 12.7427C206.813 13.1072 205.859 13.2895 204.746 13.2895ZM217.51 15.9751V11.2681C217.51 10.9295 217.454 10.6398 217.344 10.3989C217.233 10.1515 217.061 9.95946 216.826 9.82274C216.598 9.68602 216.302 9.61766 215.938 9.61766C215.625 9.61766 215.355 9.673 215.127 9.78368C214.899 9.88784 214.723 10.0408 214.6 10.2427C214.476 10.438 214.414 10.6691 214.414 10.936H211.602C211.602 10.4868 211.706 10.0604 211.914 9.65672C212.122 9.25308 212.425 8.89826 212.822 8.59227C213.219 8.27977 213.691 8.03563 214.238 7.85985C214.792 7.68407 215.41 7.59618 216.094 7.59618C216.914 7.59618 217.643 7.73289 218.281 8.00633C218.919 8.27977 219.421 8.68993 219.785 9.2368C220.156 9.78368 220.342 10.4673 220.342 11.2876V15.8091C220.342 16.3885 220.378 16.8638 220.449 17.2348C220.521 17.5994 220.625 17.9184 220.762 18.1919V18.3579H217.92C217.783 18.0714 217.679 17.7134 217.607 17.2837C217.542 16.8475 217.51 16.4113 217.51 15.9751ZM217.881 11.9223L217.9 13.5141H216.328C215.957 13.5141 215.635 13.5565 215.361 13.6411C215.088 13.7257 214.863 13.8462 214.688 14.0024C214.512 14.1522 214.382 14.3279 214.297 14.5298C214.219 14.7316 214.18 14.9529 214.18 15.1938C214.18 15.4347 214.235 15.6528 214.346 15.8481C214.456 16.0369 214.616 16.1867 214.824 16.2973C215.033 16.4015 215.277 16.4536 215.557 16.4536C215.98 16.4536 216.348 16.369 216.66 16.1997C216.973 16.0304 217.214 15.8221 217.383 15.5747C217.559 15.3273 217.65 15.0929 217.656 14.8716L218.398 16.063C218.294 16.3299 218.151 16.6066 217.969 16.8931C217.793 17.1795 217.568 17.4497 217.295 17.7036C217.021 17.951 216.693 18.1561 216.309 18.3188C215.924 18.4751 215.469 18.5532 214.941 18.5532C214.271 18.5532 213.662 18.4197 213.115 18.1528C212.575 17.8794 212.145 17.505 211.826 17.0298C211.514 16.548 211.357 16.0011 211.357 15.3891C211.357 14.8358 211.462 14.3442 211.67 13.9145C211.878 13.4848 212.184 13.1235 212.588 12.8306C212.998 12.5311 213.509 12.3065 214.121 12.1567C214.733 12.0005 215.443 11.9223 216.25 11.9223H217.881ZM229.199 7.79149H231.748V18.0063C231.748 18.9699 231.533 19.7869 231.104 20.4575C230.68 21.1346 230.088 21.6457 229.326 21.9907C228.564 22.3423 227.679 22.5181 226.67 22.5181C226.227 22.5181 225.758 22.4595 225.264 22.3423C224.775 22.2251 224.307 22.0428 223.857 21.7954C223.415 21.548 223.044 21.2355 222.744 20.8579L223.984 19.1977C224.31 19.5753 224.688 19.8683 225.117 20.0766C225.547 20.2915 226.022 20.3989 226.543 20.3989C227.051 20.3989 227.48 20.3045 227.832 20.1157C228.184 19.9334 228.454 19.6632 228.643 19.3052C228.831 18.9536 228.926 18.5272 228.926 18.0259V10.2329L229.199 7.79149ZM222.09 13.2016V12.9966C222.09 12.1893 222.188 11.4569 222.383 10.7993C222.585 10.1352 222.868 9.56558 223.232 9.09032C223.604 8.61506 224.053 8.24722 224.58 7.9868C225.107 7.72638 225.703 7.59618 226.367 7.59618C227.07 7.59618 227.66 7.72638 228.135 7.9868C228.61 8.24722 229.001 8.61831 229.307 9.10008C229.613 9.57534 229.85 10.1385 230.02 10.7895C230.195 11.4341 230.332 12.1404 230.43 12.9087V13.3579C230.332 14.0936 230.186 14.7772 229.99 15.4087C229.795 16.0402 229.538 16.5936 229.219 17.0688C228.9 17.5376 228.503 17.9022 228.027 18.1626C227.559 18.423 226.999 18.5532 226.348 18.5532C225.697 18.5532 225.107 18.4197 224.58 18.1528C224.059 17.8859 223.613 17.5115 223.242 17.0298C222.871 16.548 222.585 15.9816 222.383 15.3306C222.188 14.6795 222.09 13.9699 222.09 13.2016ZM224.902 12.9966V13.2016C224.902 13.6378 224.945 14.0447 225.029 14.4223C225.114 14.8 225.244 15.1352 225.42 15.4282C225.602 15.7147 225.827 15.9393 226.094 16.102C226.367 16.2583 226.689 16.3364 227.061 16.3364C227.575 16.3364 227.995 16.229 228.32 16.0141C228.646 15.7928 228.89 15.4901 229.053 15.1059C229.215 14.7218 229.31 14.2791 229.336 13.7778V12.4985C229.323 12.0884 229.268 11.7205 229.17 11.395C229.072 11.063 228.936 10.7798 228.76 10.5454C228.584 10.311 228.356 10.1287 228.076 9.99852C227.796 9.86831 227.464 9.80321 227.08 9.80321C226.709 9.80321 226.387 9.88784 226.113 10.0571C225.846 10.2199 225.622 10.4445 225.439 10.7309C225.264 11.0174 225.13 11.3559 225.039 11.7466C224.948 12.1307 224.902 12.5473 224.902 12.9966ZM238.799 18.5532C237.979 18.5532 237.243 18.423 236.592 18.1626C235.941 17.8957 235.387 17.5278 234.932 17.0591C234.482 16.5903 234.137 16.0467 233.896 15.4282C233.656 14.8032 233.535 14.1391 233.535 13.436V13.0454C233.535 12.2446 233.649 11.5122 233.877 10.8481C234.105 10.1841 234.43 9.60789 234.854 9.11961C235.283 8.63133 235.804 8.25698 236.416 7.99657C237.028 7.72964 237.718 7.59618 238.486 7.59618C239.235 7.59618 239.899 7.71987 240.479 7.96727C241.058 8.21467 241.543 8.56623 241.934 9.02196C242.331 9.47769 242.63 10.0246 242.832 10.6626C243.034 11.2941 243.135 11.9972 243.135 12.772V13.9438H234.736V12.0688H240.371V11.854C240.371 11.4634 240.299 11.1151 240.156 10.8091C240.02 10.4966 239.811 10.2492 239.531 10.0669C239.251 9.88459 238.893 9.79344 238.457 9.79344C238.086 9.79344 237.767 9.87482 237.5 10.0376C237.233 10.2003 237.015 10.4282 236.846 10.7212C236.683 11.0141 236.559 11.3592 236.475 11.7563C236.396 12.147 236.357 12.5766 236.357 13.0454V13.436C236.357 13.8592 236.416 14.2498 236.533 14.6079C236.657 14.966 236.829 15.2752 237.051 15.5356C237.279 15.796 237.552 15.9979 237.871 16.1411C238.197 16.2843 238.564 16.3559 238.975 16.3559C239.482 16.3559 239.954 16.2583 240.391 16.063C240.833 15.8612 241.214 15.5584 241.533 15.1548L242.9 16.6391C242.679 16.9582 242.376 17.2641 241.992 17.5571C241.615 17.8501 241.159 18.091 240.625 18.2798C240.091 18.4621 239.482 18.5532 238.799 18.5532ZM250.449 15.438C250.449 15.2362 250.391 15.0539 250.273 14.8911C250.156 14.7283 249.938 14.5786 249.619 14.4419C249.307 14.2987 248.854 14.1684 248.262 14.0513C247.728 13.9341 247.23 13.7876 246.768 13.6118C246.312 13.4295 245.915 13.2114 245.576 12.9575C245.244 12.7036 244.984 12.4041 244.795 12.0591C244.606 11.7075 244.512 11.3071 244.512 10.8579C244.512 10.4152 244.606 9.99852 244.795 9.60789C244.99 9.21727 245.267 8.87222 245.625 8.57274C245.99 8.26675 246.432 8.02912 246.953 7.85985C247.48 7.68407 248.073 7.59618 248.73 7.59618C249.648 7.59618 250.436 7.74266 251.094 8.03563C251.758 8.3286 252.266 8.73224 252.617 9.24657C252.975 9.75438 253.154 10.3338 253.154 10.9848H250.342C250.342 10.7114 250.283 10.4673 250.166 10.2524C250.055 10.0311 249.88 9.85855 249.639 9.73485C249.404 9.60464 249.098 9.53954 248.721 9.53954C248.408 9.53954 248.138 9.59487 247.91 9.70555C247.682 9.80972 247.507 9.95295 247.383 10.1352C247.266 10.311 247.207 10.5063 247.207 10.7212C247.207 10.8839 247.24 11.0304 247.305 11.1606C247.376 11.2843 247.49 11.3983 247.646 11.5024C247.803 11.6066 248.005 11.7042 248.252 11.7954C248.506 11.88 248.818 11.9582 249.189 12.0298C249.951 12.186 250.632 12.3911 251.23 12.645C251.829 12.8924 252.305 13.2309 252.656 13.6606C253.008 14.0838 253.184 14.6404 253.184 15.3306C253.184 15.7993 253.079 16.229 252.871 16.6196C252.663 17.0102 252.363 17.352 251.973 17.645C251.582 17.9315 251.113 18.1561 250.566 18.3188C250.026 18.4751 249.417 18.5532 248.74 18.5532C247.757 18.5532 246.924 18.3774 246.24 18.0259C245.563 17.6743 245.049 17.2283 244.697 16.688C244.352 16.1411 244.18 15.5812 244.18 15.0083H246.846C246.859 15.3924 246.956 15.7016 247.139 15.936C247.327 16.1704 247.565 16.3397 247.852 16.4438C248.145 16.548 248.46 16.6001 248.799 16.6001C249.163 16.6001 249.466 16.5513 249.707 16.4536C249.948 16.3494 250.13 16.2127 250.254 16.0434C250.384 15.8677 250.449 15.6658 250.449 15.438ZM312.393 14.6372C312.393 14.3833 312.354 14.1554 312.275 13.9536C312.204 13.7453 312.067 13.5565 311.865 13.3872C311.663 13.2114 311.38 13.0389 311.016 12.8696C310.651 12.7003 310.179 12.5246 309.6 12.3423C308.955 12.1339 308.343 11.8996 307.764 11.6391C307.191 11.3787 306.683 11.076 306.24 10.7309C305.804 10.3794 305.459 9.97248 305.205 9.51024C304.958 9.048 304.834 8.51089 304.834 7.89891C304.834 7.30646 304.964 6.76935 305.225 6.28758C305.485 5.7993 305.85 5.38263 306.318 5.03758C306.787 4.68602 307.34 4.41584 307.979 4.22704C308.623 4.03823 309.329 3.94383 310.098 3.94383C311.146 3.94383 312.061 4.13263 312.842 4.51024C313.623 4.88784 314.229 5.40542 314.658 6.06297C315.094 6.72053 315.312 7.47248 315.312 8.31883H312.402C312.402 7.90217 312.314 7.53758 312.139 7.22508C311.969 6.90607 311.709 6.65542 311.357 6.47313C311.012 6.29084 310.576 6.19969 310.049 6.19969C309.541 6.19969 309.118 6.27782 308.779 6.43407C308.441 6.58381 308.187 6.78888 308.018 7.0493C307.848 7.30321 307.764 7.58967 307.764 7.90868C307.764 8.14956 307.822 8.36766 307.939 8.56297C308.063 8.75829 308.245 8.94058 308.486 9.10985C308.727 9.27912 309.023 9.43862 309.375 9.58836C309.727 9.7381 310.133 9.88459 310.596 10.0278C311.37 10.2622 312.051 10.5259 312.637 10.8188C313.229 11.1118 313.724 11.4406 314.121 11.8052C314.518 12.1697 314.818 12.5832 315.02 13.0454C315.221 13.5076 315.322 14.0317 315.322 14.6177C315.322 15.2362 315.202 15.7895 314.961 16.2778C314.72 16.7661 314.372 17.1795 313.916 17.5181C313.46 17.8566 312.917 18.1138 312.285 18.2895C311.654 18.4653 310.947 18.5532 310.166 18.5532C309.463 18.5532 308.77 18.4621 308.086 18.2798C307.402 18.091 306.781 17.8078 306.221 17.4302C305.667 17.0526 305.225 16.5708 304.893 15.9848C304.561 15.3989 304.395 14.7056 304.395 13.9048H307.334C307.334 14.3475 307.402 14.7218 307.539 15.0278C307.676 15.3338 307.868 15.5812 308.115 15.77C308.369 15.9588 308.669 16.0955 309.014 16.1802C309.365 16.2648 309.749 16.3071 310.166 16.3071C310.674 16.3071 311.09 16.2355 311.416 16.0923C311.748 15.949 311.992 15.7505 312.148 15.4966C312.311 15.2427 312.393 14.9562 312.393 14.6372ZM319.883 3.35789V18.3579H317.07V3.35789H319.883ZM319.482 12.7036H318.711C318.717 11.9679 318.815 11.2908 319.004 10.6723C319.193 10.0473 319.463 9.50698 319.814 9.05125C320.166 8.58901 320.586 8.23094 321.074 7.97704C321.569 7.72313 322.116 7.59618 322.715 7.59618C323.236 7.59618 323.708 7.67105 324.131 7.82079C324.561 7.96401 324.928 8.19839 325.234 8.52391C325.547 8.84292 325.788 9.26284 325.957 9.78368C326.126 10.3045 326.211 10.936 326.211 11.6782V18.3579H323.379V11.6587C323.379 11.1899 323.311 10.8221 323.174 10.5552C323.044 10.2817 322.852 10.0897 322.598 9.97899C322.35 9.8618 322.044 9.80321 321.68 9.80321C321.276 9.80321 320.931 9.87808 320.645 10.0278C320.365 10.1776 320.14 10.3859 319.971 10.6528C319.801 10.9132 319.678 11.2192 319.6 11.5708C319.521 11.9223 319.482 12.3 319.482 12.7036ZM327.9 13.1821V12.977C327.9 12.2023 328.011 11.4894 328.232 10.8384C328.454 10.1808 328.776 9.61115 329.199 9.12938C329.622 8.64761 330.143 8.27326 330.762 8.00633C331.38 7.73289 332.09 7.59618 332.891 7.59618C333.691 7.59618 334.404 7.73289 335.029 8.00633C335.654 8.27326 336.178 8.64761 336.602 9.12938C337.031 9.61115 337.357 10.1808 337.578 10.8384C337.799 11.4894 337.91 12.2023 337.91 12.977V13.1821C337.91 13.9503 337.799 14.6632 337.578 15.3208C337.357 15.9718 337.031 16.5415 336.602 17.0298C336.178 17.5115 335.658 17.8859 335.039 18.1528C334.421 18.4197 333.711 18.5532 332.91 18.5532C332.109 18.5532 331.396 18.4197 330.771 18.1528C330.153 17.8859 329.629 17.5115 329.199 17.0298C328.776 16.5415 328.454 15.9718 328.232 15.3208C328.011 14.6632 327.9 13.9503 327.9 13.1821ZM330.713 12.977V13.1821C330.713 13.6248 330.752 14.0382 330.83 14.4223C330.908 14.8065 331.032 15.145 331.201 15.438C331.377 15.7244 331.605 15.949 331.885 16.1118C332.165 16.2746 332.507 16.3559 332.91 16.3559C333.301 16.3559 333.636 16.2746 333.916 16.1118C334.196 15.949 334.421 15.7244 334.59 15.438C334.759 15.145 334.883 14.8065 334.961 14.4223C335.046 14.0382 335.088 13.6248 335.088 13.1821V12.977C335.088 12.5473 335.046 12.1437 334.961 11.7661C334.883 11.382 334.756 11.0434 334.58 10.7505C334.411 10.451 334.186 10.2166 333.906 10.0473C333.626 9.87808 333.288 9.79344 332.891 9.79344C332.493 9.79344 332.155 9.87808 331.875 10.0473C331.602 10.2166 331.377 10.451 331.201 10.7505C331.032 11.0434 330.908 11.382 330.83 11.7661C330.752 12.1437 330.713 12.5473 330.713 12.977ZM342.451 9.82274V22.4204H339.639V7.79149H342.246L342.451 9.82274ZM349.141 12.9575V13.1626C349.141 13.9308 349.049 14.6437 348.867 15.3013C348.691 15.9588 348.431 16.5317 348.086 17.02C347.741 17.5018 347.311 17.8794 346.797 18.1528C346.289 18.4197 345.703 18.5532 345.039 18.5532C344.395 18.5532 343.835 18.423 343.359 18.1626C342.884 17.9022 342.484 17.5376 342.158 17.0688C341.839 16.5936 341.582 16.0434 341.387 15.4184C341.191 14.7934 341.042 14.1229 340.938 13.4067V12.8696C341.042 12.1014 341.191 11.3983 341.387 10.7602C341.582 10.1157 341.839 9.55907 342.158 9.09032C342.484 8.61506 342.881 8.24722 343.35 7.9868C343.825 7.72638 344.382 7.59618 345.02 7.59618C345.69 7.59618 346.279 7.72313 346.787 7.97704C347.301 8.23094 347.731 8.59553 348.076 9.07079C348.428 9.54605 348.691 10.1125 348.867 10.77C349.049 11.4276 349.141 12.1567 349.141 12.9575ZM346.318 13.1626V12.9575C346.318 12.5083 346.279 12.0949 346.201 11.7173C346.13 11.3332 346.012 10.9979 345.85 10.7114C345.693 10.425 345.485 10.2036 345.225 10.0473C344.971 9.88459 344.661 9.80321 344.297 9.80321C343.913 9.80321 343.584 9.86506 343.311 9.98875C343.044 10.1125 342.826 10.2915 342.656 10.5259C342.487 10.7602 342.36 11.0402 342.275 11.3657C342.191 11.6912 342.139 12.0591 342.119 12.4692V13.8266C342.152 14.3084 342.243 14.7414 342.393 15.1255C342.542 15.5031 342.773 15.8026 343.086 16.0239C343.398 16.2453 343.809 16.3559 344.316 16.3559C344.688 16.3559 345 16.2746 345.254 16.1118C345.508 15.9425 345.713 15.7114 345.869 15.4184C346.032 15.1255 346.146 14.7869 346.211 14.4028C346.283 14.0187 346.318 13.6053 346.318 13.1626ZM401.426 13.2895H397.803V11.0044H401.426C401.986 11.0044 402.441 10.9132 402.793 10.7309C403.145 10.5421 403.402 10.2817 403.564 9.94969C403.727 9.61766 403.809 9.24331 403.809 8.82664C403.809 8.40347 403.727 8.00959 403.564 7.645C403.402 7.28042 403.145 6.98745 402.793 6.7661C402.441 6.54474 401.986 6.43407 401.426 6.43407H398.818V18.3579H395.889V4.13914H401.426C402.539 4.13914 403.493 4.34097 404.287 4.74461C405.088 5.14175 405.7 5.69188 406.123 6.395C406.546 7.09813 406.758 7.90217 406.758 8.80711C406.758 9.72508 406.546 10.5194 406.123 11.1899C405.7 11.8605 405.088 12.3781 404.287 12.7427C403.493 13.1072 402.539 13.2895 401.426 13.2895ZM411.416 10.0962V18.3579H408.604V7.79149H411.25L411.416 10.0962ZM414.6 7.72313L414.551 10.3306C414.414 10.311 414.248 10.2947 414.053 10.2817C413.864 10.2622 413.691 10.2524 413.535 10.2524C413.138 10.2524 412.793 10.3045 412.5 10.4087C412.214 10.5063 411.973 10.6528 411.777 10.8481C411.589 11.0434 411.445 11.2811 411.348 11.561C411.257 11.841 411.204 12.16 411.191 12.5181L410.625 12.3423C410.625 11.6587 410.693 11.0304 410.83 10.4575C410.967 9.87808 411.165 9.37352 411.426 8.94383C411.693 8.51414 412.018 8.18211 412.402 7.94774C412.786 7.71336 413.226 7.59618 413.721 7.59618C413.877 7.59618 414.036 7.6092 414.199 7.63524C414.362 7.65477 414.495 7.68407 414.6 7.72313ZM415.186 13.1821V12.977C415.186 12.2023 415.296 11.4894 415.518 10.8384C415.739 10.1808 416.061 9.61115 416.484 9.12938C416.908 8.64761 417.428 8.27326 418.047 8.00633C418.665 7.73289 419.375 7.59618 420.176 7.59618C420.977 7.59618 421.689 7.73289 422.314 8.00633C422.939 8.27326 423.464 8.64761 423.887 9.12938C424.316 9.61115 424.642 10.1808 424.863 10.8384C425.085 11.4894 425.195 12.2023 425.195 12.977V13.1821C425.195 13.9503 425.085 14.6632 424.863 15.3208C424.642 15.9718 424.316 16.5415 423.887 17.0298C423.464 17.5115 422.943 17.8859 422.324 18.1528C421.706 18.4197 420.996 18.5532 420.195 18.5532C419.395 18.5532 418.682 18.4197 418.057 18.1528C417.438 17.8859 416.914 17.5115 416.484 17.0298C416.061 16.5415 415.739 15.9718 415.518 15.3208C415.296 14.6632 415.186 13.9503 415.186 13.1821ZM417.998 12.977V13.1821C417.998 13.6248 418.037 14.0382 418.115 14.4223C418.193 14.8065 418.317 15.145 418.486 15.438C418.662 15.7244 418.89 15.949 419.17 16.1118C419.45 16.2746 419.792 16.3559 420.195 16.3559C420.586 16.3559 420.921 16.2746 421.201 16.1118C421.481 15.949 421.706 15.7244 421.875 15.438C422.044 15.145 422.168 14.8065 422.246 14.4223C422.331 14.0382 422.373 13.6248 422.373 13.1821V12.977C422.373 12.5473 422.331 12.1437 422.246 11.7661C422.168 11.382 422.041 11.0434 421.865 10.7505C421.696 10.451 421.471 10.2166 421.191 10.0473C420.911 9.87808 420.573 9.79344 420.176 9.79344C419.779 9.79344 419.44 9.87808 419.16 10.0473C418.887 10.2166 418.662 10.451 418.486 10.7505C418.317 11.0434 418.193 11.382 418.115 11.7661C418.037 12.1437 417.998 12.5473 417.998 12.977ZM427.08 7.79149H429.902V18.9927C429.902 19.7739 429.759 20.4347 429.473 20.9751C429.186 21.5154 428.773 21.9256 428.232 22.2056C427.692 22.4855 427.038 22.6255 426.27 22.6255C426.029 22.6255 425.794 22.6125 425.566 22.5864C425.332 22.5604 425.091 22.5181 424.844 22.4595L424.854 20.3013C425.01 20.3273 425.163 20.3468 425.312 20.3598C425.456 20.3794 425.602 20.3891 425.752 20.3891C426.045 20.3891 426.289 20.3403 426.484 20.2427C426.68 20.145 426.826 19.992 426.924 19.7837C427.028 19.5819 427.08 19.3182 427.08 18.9927V7.79149ZM426.855 5.03758C426.855 4.62743 426.999 4.28888 427.285 4.02196C427.578 3.75503 427.962 3.62157 428.438 3.62157C428.919 3.62157 429.303 3.75503 429.59 4.02196C429.876 4.28888 430.02 4.62743 430.02 5.03758C430.02 5.44774 429.876 5.78628 429.59 6.05321C429.303 6.32013 428.919 6.4536 428.438 6.4536C427.962 6.4536 427.578 6.32013 427.285 6.05321C426.999 5.78628 426.855 5.44774 426.855 5.03758ZM437.002 18.5532C436.182 18.5532 435.446 18.423 434.795 18.1626C434.144 17.8957 433.59 17.5278 433.135 17.0591C432.686 16.5903 432.34 16.0467 432.1 15.4282C431.859 14.8032 431.738 14.1391 431.738 13.436V13.0454C431.738 12.2446 431.852 11.5122 432.08 10.8481C432.308 10.1841 432.633 9.60789 433.057 9.11961C433.486 8.63133 434.007 8.25698 434.619 7.99657C435.231 7.72964 435.921 7.59618 436.689 7.59618C437.438 7.59618 438.102 7.71987 438.682 7.96727C439.261 8.21467 439.746 8.56623 440.137 9.02196C440.534 9.47769 440.833 10.0246 441.035 10.6626C441.237 11.2941 441.338 11.9972 441.338 12.772V13.9438H432.939V12.0688H438.574V11.854C438.574 11.4634 438.503 11.1151 438.359 10.8091C438.223 10.4966 438.014 10.2492 437.734 10.0669C437.454 9.88459 437.096 9.79344 436.66 9.79344C436.289 9.79344 435.97 9.87482 435.703 10.0376C435.436 10.2003 435.218 10.4282 435.049 10.7212C434.886 11.0141 434.762 11.3592 434.678 11.7563C434.6 12.147 434.561 12.5766 434.561 13.0454V13.436C434.561 13.8592 434.619 14.2498 434.736 14.6079C434.86 14.966 435.033 15.2752 435.254 15.5356C435.482 15.796 435.755 15.9979 436.074 16.1411C436.4 16.2843 436.768 16.3559 437.178 16.3559C437.686 16.3559 438.158 16.2583 438.594 16.063C439.036 15.8612 439.417 15.5584 439.736 15.1548L441.104 16.6391C440.882 16.9582 440.579 17.2641 440.195 17.5571C439.818 17.8501 439.362 18.091 438.828 18.2798C438.294 18.4621 437.686 18.5532 437.002 18.5532ZM447.305 16.3559C447.65 16.3559 447.956 16.2908 448.223 16.1606C448.49 16.0239 448.698 15.8351 448.848 15.5942C449.004 15.3468 449.085 15.0571 449.092 14.7251H451.738C451.732 15.4673 451.533 16.1281 451.143 16.7075C450.752 17.2804 450.228 17.7329 449.57 18.0649C448.913 18.3904 448.177 18.5532 447.363 18.5532C446.543 18.5532 445.827 18.4165 445.215 18.1431C444.609 17.8696 444.105 17.492 443.701 17.0102C443.298 16.522 442.995 15.9556 442.793 15.311C442.591 14.66 442.49 13.9634 442.49 13.2212V12.938C442.49 12.1893 442.591 11.4927 442.793 10.8481C442.995 10.1971 443.298 9.63068 443.701 9.14891C444.105 8.66063 444.609 8.27977 445.215 8.00633C445.82 7.73289 446.53 7.59618 447.344 7.59618C448.21 7.59618 448.968 7.76219 449.619 8.09422C450.277 8.42625 450.791 8.90151 451.162 9.52C451.54 10.132 451.732 10.8579 451.738 11.6977H449.092C449.085 11.3462 449.01 11.0272 448.867 10.7407C448.73 10.4542 448.529 10.2264 448.262 10.0571C448.001 9.88133 447.679 9.79344 447.295 9.79344C446.885 9.79344 446.549 9.88133 446.289 10.0571C446.029 10.2264 445.827 10.4608 445.684 10.7602C445.54 11.0532 445.439 11.3885 445.381 11.7661C445.329 12.1372 445.303 12.5278 445.303 12.938V13.2212C445.303 13.6313 445.329 14.0252 445.381 14.4028C445.433 14.7804 445.531 15.1157 445.674 15.4087C445.824 15.7016 446.029 15.9328 446.289 16.102C446.549 16.2713 446.888 16.3559 447.305 16.3559ZM458.545 7.79149V9.78368H452.393V7.79149H458.545ZM453.916 5.18407H456.729V15.1743C456.729 15.4803 456.768 15.7147 456.846 15.8774C456.93 16.0402 457.054 16.1541 457.217 16.2192C457.38 16.2778 457.585 16.3071 457.832 16.3071C458.008 16.3071 458.164 16.3006 458.301 16.2876C458.444 16.2681 458.564 16.2485 458.662 16.229L458.672 18.2993C458.431 18.3774 458.171 18.4393 457.891 18.4848C457.611 18.5304 457.301 18.5532 456.963 18.5532C456.344 18.5532 455.804 18.4523 455.342 18.2505C454.886 18.0421 454.535 17.7101 454.287 17.2544C454.04 16.7987 453.916 16.1997 453.916 15.4575V5.18407ZM465.859 15.438C465.859 15.2362 465.801 15.0539 465.684 14.8911C465.566 14.7283 465.348 14.5786 465.029 14.4419C464.717 14.2987 464.264 14.1684 463.672 14.0513C463.138 13.9341 462.64 13.7876 462.178 13.6118C461.722 13.4295 461.325 13.2114 460.986 12.9575C460.654 12.7036 460.394 12.4041 460.205 12.0591C460.016 11.7075 459.922 11.3071 459.922 10.8579C459.922 10.4152 460.016 9.99852 460.205 9.60789C460.4 9.21727 460.677 8.87222 461.035 8.57274C461.4 8.26675 461.842 8.02912 462.363 7.85985C462.891 7.68407 463.483 7.59618 464.141 7.59618C465.059 7.59618 465.846 7.74266 466.504 8.03563C467.168 8.3286 467.676 8.73224 468.027 9.24657C468.385 9.75438 468.564 10.3338 468.564 10.9848H465.752C465.752 10.7114 465.693 10.4673 465.576 10.2524C465.465 10.0311 465.29 9.85855 465.049 9.73485C464.814 9.60464 464.508 9.53954 464.131 9.53954C463.818 9.53954 463.548 9.59487 463.32 9.70555C463.092 9.80972 462.917 9.95295 462.793 10.1352C462.676 10.311 462.617 10.5063 462.617 10.7212C462.617 10.8839 462.65 11.0304 462.715 11.1606C462.786 11.2843 462.9 11.3983 463.057 11.5024C463.213 11.6066 463.415 11.7042 463.662 11.7954C463.916 11.88 464.229 11.9582 464.6 12.0298C465.361 12.186 466.042 12.3911 466.641 12.645C467.24 12.8924 467.715 13.2309 468.066 13.6606C468.418 14.0838 468.594 14.6404 468.594 15.3306C468.594 15.7993 468.49 16.229 468.281 16.6196C468.073 17.0102 467.773 17.352 467.383 17.645C466.992 17.9315 466.523 18.1561 465.977 18.3188C465.436 18.4751 464.827 18.5532 464.15 18.5532C463.167 18.5532 462.334 18.3774 461.65 18.0259C460.973 17.6743 460.459 17.2283 460.107 16.688C459.762 16.1411 459.59 15.5812 459.59 15.0083H462.256C462.269 15.3924 462.367 15.7016 462.549 15.936C462.738 16.1704 462.975 16.3397 463.262 16.4438C463.555 16.548 463.87 16.6001 464.209 16.6001C464.574 16.6001 464.876 16.5513 465.117 16.4536C465.358 16.3494 465.54 16.2127 465.664 16.0434C465.794 15.8677 465.859 15.6658 465.859 15.438ZM526.992 4.13914V18.3579H524.062L518.35 8.82664V18.3579H515.42V4.13914H518.35L524.072 13.6802V4.13914H526.992ZM534.229 18.5532C533.408 18.5532 532.673 18.423 532.021 18.1626C531.37 17.8957 530.817 17.5278 530.361 17.0591C529.912 16.5903 529.567 16.0467 529.326 15.4282C529.085 14.8032 528.965 14.1391 528.965 13.436V13.0454C528.965 12.2446 529.079 11.5122 529.307 10.8481C529.535 10.1841 529.86 9.60789 530.283 9.11961C530.713 8.63133 531.234 8.25698 531.846 7.99657C532.458 7.72964 533.148 7.59618 533.916 7.59618C534.665 7.59618 535.329 7.71987 535.908 7.96727C536.488 8.21467 536.973 8.56623 537.363 9.02196C537.76 9.47769 538.06 10.0246 538.262 10.6626C538.464 11.2941 538.564 11.9972 538.564 12.772V13.9438H530.166V12.0688H535.801V11.854C535.801 11.4634 535.729 11.1151 535.586 10.8091C535.449 10.4966 535.241 10.2492 534.961 10.0669C534.681 9.88459 534.323 9.79344 533.887 9.79344C533.516 9.79344 533.197 9.87482 532.93 10.0376C532.663 10.2003 532.445 10.4282 532.275 10.7212C532.113 11.0141 531.989 11.3592 531.904 11.7563C531.826 12.147 531.787 12.5766 531.787 13.0454V13.436C531.787 13.8592 531.846 14.2498 531.963 14.6079C532.087 14.966 532.259 15.2752 532.48 15.5356C532.708 15.796 532.982 15.9979 533.301 16.1411C533.626 16.2843 533.994 16.3559 534.404 16.3559C534.912 16.3559 535.384 16.2583 535.82 16.063C536.263 15.8612 536.644 15.5584 536.963 15.1548L538.33 16.6391C538.109 16.9582 537.806 17.2641 537.422 17.5571C537.044 17.8501 536.589 18.091 536.055 18.2798C535.521 18.4621 534.912 18.5532 534.229 18.5532ZM543.184 15.6235L545.381 7.79149H547.168L546.592 10.8677L544.395 18.3579H542.9L543.184 15.6235ZM542.07 7.79149L543.643 15.6138L543.789 18.3579H542.031L539.355 7.79149H542.07ZM549.18 15.4868L550.713 7.79149H553.438L550.762 18.3579H549.014L549.18 15.4868ZM547.412 7.79149L549.6 15.5649L549.902 18.3579H548.398L546.201 10.8774L545.645 7.79149H547.412ZM560.566 15.438C560.566 15.2362 560.508 15.0539 560.391 14.8911C560.273 14.7283 560.055 14.5786 559.736 14.4419C559.424 14.2987 558.971 14.1684 558.379 14.0513C557.845 13.9341 557.347 13.7876 556.885 13.6118C556.429 13.4295 556.032 13.2114 555.693 12.9575C555.361 12.7036 555.101 12.4041 554.912 12.0591C554.723 11.7075 554.629 11.3071 554.629 10.8579C554.629 10.4152 554.723 9.99852 554.912 9.60789C555.107 9.21727 555.384 8.87222 555.742 8.57274C556.107 8.26675 556.549 8.02912 557.07 7.85985C557.598 7.68407 558.19 7.59618 558.848 7.59618C559.766 7.59618 560.553 7.74266 561.211 8.03563C561.875 8.3286 562.383 8.73224 562.734 9.24657C563.092 9.75438 563.271 10.3338 563.271 10.9848H560.459C560.459 10.7114 560.4 10.4673 560.283 10.2524C560.173 10.0311 559.997 9.85855 559.756 9.73485C559.521 9.60464 559.215 9.53954 558.838 9.53954C558.525 9.53954 558.255 9.59487 558.027 9.70555C557.799 9.80972 557.624 9.95295 557.5 10.1352C557.383 10.311 557.324 10.5063 557.324 10.7212C557.324 10.8839 557.357 11.0304 557.422 11.1606C557.493 11.2843 557.607 11.3983 557.764 11.5024C557.92 11.6066 558.122 11.7042 558.369 11.7954C558.623 11.88 558.936 11.9582 559.307 12.0298C560.068 12.186 560.749 12.3911 561.348 12.645C561.947 12.8924 562.422 13.2309 562.773 13.6606C563.125 14.0838 563.301 14.6404 563.301 15.3306C563.301 15.7993 563.197 16.229 562.988 16.6196C562.78 17.0102 562.48 17.352 562.09 17.645C561.699 17.9315 561.23 18.1561 560.684 18.3188C560.143 18.4751 559.535 18.5532 558.857 18.5532C557.874 18.5532 557.041 18.3774 556.357 18.0259C555.68 17.6743 555.166 17.2283 554.814 16.688C554.469 16.1411 554.297 15.5812 554.297 15.0083H556.963C556.976 15.3924 557.074 15.7016 557.256 15.936C557.445 16.1704 557.682 16.3397 557.969 16.4438C558.262 16.548 558.577 16.6001 558.916 16.6001C559.281 16.6001 559.583 16.5513 559.824 16.4536C560.065 16.3494 560.247 16.2127 560.371 16.0434C560.501 15.8677 560.566 15.6658 560.566 15.438Z" fill="#274C5B"/>
</svg>
